M48
INCH
T35C0.013
T34C0.028
T33C0.038
T32C0.040
%
T35
X008000Y030500
X012000Y031400
X012500Y030000
X012500Y029000
X013700Y029000
X015700Y027000
T34
X019000Y035000
X020000Y032000
X022000Y035000
X023000Y032000
X024000Y035000
X024000Y032000
X025000Y035000
X025000Y032000
T33
X005000Y034000
X005000Y033000
X005000Y032000
X005000Y031000
X005000Y030000
X005000Y029000
X005000Y028000
X005000Y027000
X005000Y026000
X006000Y036000
X007000Y036000
X018000Y036000
X018000Y035000
X018000Y032000
X019000Y032000
X022000Y042000
X022000Y041000
X022000Y040000
X022000Y039000
X023000Y042000
X023000Y041000
X023000Y040000
X023000Y039000
X024000Y042000
X024000Y041000
X024000Y040000
X024000Y039000
X025000Y042000
X025000Y041000
X025000Y040000
X025000Y039000
T32
X004000Y024000
X004000Y023000
X005000Y024000
X005000Y023000
X006000Y024000
X006000Y023000
X007000Y045000
X007000Y042000
X007000Y041000
X007000Y038000
X007000Y024000
X007000Y023000
X008000Y045000
X008000Y038000
X008000Y024000
X008000Y023000
X009000Y045000
X009000Y038000
X009000Y024000
X009000Y023000
X010000Y045000
X010000Y038000
X010000Y024000
X010000Y023000
X011000Y045000
X011000Y038000
X011000Y024000
X011000Y023000
X012000Y045000
X012000Y038000
X012000Y024000
X012000Y023000
X013000Y045000
X013000Y038000
X013000Y024000
X013000Y023000
X014000Y045000
X014000Y038000
X014000Y024000
X014000Y023000
X015000Y045000
X015000Y038000
X015000Y024000
X015000Y023000
X016000Y045000
X016000Y038000
X016000Y024000
X016000Y023000
X017000Y045000
X017000Y038000
X017000Y024000
X017000Y023000
X018000Y045000
X018000Y038000
X018000Y024000
X018000Y023000
X019000Y024000
X019000Y023000
X020000Y024000
X020000Y023000
X021000Y024000
X021000Y023000
X022000Y024000
X022000Y023000
X023000Y024000
X023000Y023000
X024000Y024000
X024000Y023000
X025000Y024000
X025000Y023000
M30
