G04 start of page 8 for group -4079 idx -4079 *
G04 Title: (unknown), topsilk *
G04 Creator: pcb 20140316 *
G04 CreationDate: Thu 03 Aug 2017 07:13:35 PM GMT UTC *
G04 For: root *
G04 Format: Gerber/RS-274X *
G04 PCB-Dimensions (mil): 6000.00 5000.00 *
G04 PCB-Coordinate-Origin: lower left *
%MOIN*%
%FSLAX25Y25*%
%LNTOPSILK*%
%ADD52C,0.0200*%
%ADD51C,0.0250*%
%ADD50C,0.0100*%
G54D50*X0Y500000D02*X390000D01*
Y110000D02*X0D01*
Y500000D01*
X390000Y110000D02*Y500000D01*
G54D51*X140000Y325000D02*Y112500D01*
X2500D01*
X145000D02*Y277500D01*
Y285000D02*Y272500D01*
Y300000D02*Y330000D01*
X2500D01*
X237500Y295000D02*X145000D01*
X385000Y265000D02*X275000D01*
X240000Y300000D01*
X145000D01*
X2500Y112500D02*Y325000D01*
X140000D02*X2500D01*
X145000Y295000D02*Y280000D01*
X2500Y330000D02*Y497500D01*
X385000D01*
Y265000D01*
X360000Y420000D02*X280000D01*
Y470000D01*
X360000D01*
Y420000D01*
X337500Y260000D02*Y112500D01*
X272500Y260000D02*X237500Y295000D01*
X272500Y260000D02*X385000D01*
Y112500D01*
X145000D02*X385000D01*
G54D50*X172500Y220500D02*X173000Y220000D01*
X172500Y223500D02*Y220500D01*
Y223500D02*X173000Y224000D01*
X174000D01*
X174500Y223500D01*
Y220500D01*
X174000Y220000D02*X174500Y220500D01*
X173000Y220000D02*X174000D01*
X172500Y221000D02*X174500Y223000D01*
X175700Y220000D02*X176200D01*
X177400Y223200D02*X178200Y224000D01*
Y220000D01*
X177400D02*X178900D01*
X180100Y222000D02*Y220500D01*
X180600Y220000D01*
X181600D01*
X182100Y220500D01*
Y222000D02*Y220500D01*
X183300Y224000D02*Y220000D01*
Y224000D02*X185300D01*
X183300Y222200D02*X184800D01*
X165000Y255700D02*X165800Y256500D01*
Y252500D01*
X165000D02*X166500D01*
X167700Y253000D02*X168200Y252500D01*
X167700Y256000D02*Y253000D01*
Y256000D02*X168200Y256500D01*
X169200D01*
X169700Y256000D01*
Y253000D01*
X169200Y252500D02*X169700Y253000D01*
X168200Y252500D02*X169200D01*
X167700Y253500D02*X169700Y255500D01*
X170900Y256500D02*Y252500D01*
Y254000D02*X172400Y252500D01*
X170900Y254000D02*X171900Y255000D01*
X197500Y285500D02*Y282500D01*
Y285500D02*X198200Y286500D01*
X199300D01*
X200000Y285500D01*
Y282500D01*
X197500Y284500D02*X200000D01*
X201200Y286500D02*X203200D01*
X202200D02*Y282500D01*
X204900Y286500D02*Y283000D01*
X205400Y282500D01*
X204400Y285000D02*X205400D01*
X206400Y285500D02*Y285400D01*
Y284000D02*Y282500D01*
X207900Y284000D02*Y282500D01*
Y284000D02*X208400Y284500D01*
X208900D01*
X209400Y284000D01*
Y282500D01*
X207400Y284500D02*X207900Y284000D01*
X210600Y284500D02*Y283000D01*
X211100Y282500D01*
X212600Y284500D02*Y281500D01*
X212100Y281000D02*X212600Y281500D01*
X211100Y281000D02*X212100D01*
X210600Y281500D02*X211100Y281000D01*
Y282500D02*X212100D01*
X212600Y283000D01*
X213800D02*X214300Y282500D01*
X213800Y283800D02*Y283000D01*
Y283800D02*X214500Y284500D01*
X215100D01*
X215800Y283800D01*
Y283000D01*
X215300Y282500D02*X215800Y283000D01*
X214300Y282500D02*X215300D01*
X213800Y285200D02*X214500Y284500D01*
X213800Y286000D02*Y285200D01*
Y286000D02*X214300Y286500D01*
X215300D01*
X215800Y286000D01*
Y285200D01*
X215100Y284500D02*X215800Y285200D01*
X217000Y283000D02*X217500Y282500D01*
X217000Y283800D02*Y283000D01*
Y283800D02*X217700Y284500D01*
X218300D01*
X219000Y283800D01*
Y283000D01*
X218500Y282500D02*X219000Y283000D01*
X217500Y282500D02*X218500D01*
X217000Y285200D02*X217700Y284500D01*
X217000Y286000D02*Y285200D01*
Y286000D02*X217500Y286500D01*
X218500D01*
X219000Y286000D01*
Y285200D01*
X218300Y284500D02*X219000Y285200D01*
X155000Y344000D02*X156000D01*
X155500D02*Y340000D01*
X155000D02*X156000D01*
X159200Y344000D02*X159700Y343500D01*
X157700Y344000D02*X159200D01*
X157200Y343500D02*X157700Y344000D01*
X157200Y343500D02*Y342500D01*
X157700Y342000D01*
X159200D01*
X159700Y341500D01*
Y340500D01*
X159200Y340000D02*X159700Y340500D01*
X157700Y340000D02*X159200D01*
X157200Y340500D02*X157700Y340000D01*
X161400Y344000D02*Y340000D01*
X160900Y344000D02*X162900D01*
X163400Y343500D01*
Y342500D01*
X162900Y342000D02*X163400Y342500D01*
X161400Y342000D02*X162900D01*
X187500Y340500D02*X188000Y340000D01*
X187500Y343500D02*Y340500D01*
Y343500D02*X188000Y344000D01*
X189000D01*
X189500Y343500D01*
Y340500D01*
X189000Y340000D02*X189500Y340500D01*
X188000Y340000D02*X189000D01*
X187500Y341000D02*X189500Y343000D01*
X190700Y340000D02*X191200D01*
X192400Y343200D02*X193200Y344000D01*
Y340000D01*
X192400D02*X193900D01*
X195100Y342000D02*Y340500D01*
X195600Y340000D01*
X196600D01*
X197100Y340500D01*
Y342000D02*Y340500D01*
X198300Y344000D02*Y340000D01*
Y344000D02*X200300D01*
X198300Y342200D02*X199800D01*
X282500Y330700D02*X283300Y331500D01*
Y327500D01*
X282500D02*X284000D01*
X285200Y331500D02*Y327500D01*
Y329000D02*X286700Y327500D01*
X285200Y329000D02*X286200Y330000D01*
X282500Y321000D02*X283000Y321500D01*
X284500D01*
X285000Y321000D01*
Y320000D01*
X282500Y317500D02*X285000Y320000D01*
X282500Y317500D02*X285000D01*
X286200Y321500D02*Y317500D01*
Y319000D02*X287700Y317500D01*
X286200Y319000D02*X287200Y320000D01*
X295000Y271500D02*X296000D01*
X295500D02*Y267500D01*
X295000D02*X296000D01*
X297200Y271000D02*X297700Y271500D01*
X299200D01*
X299700Y271000D01*
Y270000D01*
X297200Y267500D02*X299700Y270000D01*
X297200Y267500D02*X299700D01*
X301600D02*X302900D01*
X300900Y268200D02*X301600Y267500D01*
X300900Y270800D02*Y268200D01*
Y270800D02*X301600Y271500D01*
X302900D01*
X305900Y267500D02*X307900D01*
X308400Y268000D01*
Y269200D02*Y268000D01*
X307900Y269700D02*X308400Y269200D01*
X306400Y269700D02*X307900D01*
X306400Y271500D02*Y267500D01*
X305900Y271500D02*X307900D01*
X308400Y271000D01*
Y270200D01*
X307900Y269700D02*X308400Y270200D01*
X309600Y269500D02*Y268000D01*
X310100Y267500D01*
X311100D01*
X311600Y268000D01*
Y269500D02*Y268000D01*
X313300Y267500D02*X314800D01*
X315300Y268000D01*
X314800Y268500D02*X315300Y268000D01*
X313300Y268500D02*X314800D01*
X312800Y269000D02*X313300Y268500D01*
X312800Y269000D02*X313300Y269500D01*
X314800D01*
X315300Y269000D01*
X312800Y268000D02*X313300Y267500D01*
X242500Y320700D02*X243300Y321500D01*
Y317500D01*
X242500D02*X244000D01*
X245200Y321500D02*Y317500D01*
Y319000D02*X246700Y317500D01*
X245200Y319000D02*X246200Y320000D01*
X322500Y331000D02*X323000Y331500D01*
X324500D01*
X325000Y331000D01*
Y330000D01*
X322500Y327500D02*X325000Y330000D01*
X322500Y327500D02*X325000D01*
X326200Y331500D02*Y327500D01*
Y329000D02*X327700Y327500D01*
X326200Y329000D02*X327200Y330000D01*
X322500Y340700D02*X323300Y341500D01*
Y337500D01*
X322500D02*X324000D01*
X325200Y338000D02*X325700Y337500D01*
X325200Y341000D02*Y338000D01*
Y341000D02*X325700Y341500D01*
X326700D01*
X327200Y341000D01*
Y338000D01*
X326700Y337500D02*X327200Y338000D01*
X325700Y337500D02*X326700D01*
X325200Y338500D02*X327200Y340500D01*
X328400Y341500D02*Y337500D01*
Y339000D02*X329900Y337500D01*
X328400Y339000D02*X329400Y340000D01*
X340000Y354000D02*Y352000D01*
X340500Y350000D01*
X341500Y352000D01*
X342500Y350000D01*
X343000Y352000D01*
Y354000D02*Y352000D01*
X344200Y353000D02*Y352900D01*
Y351500D02*Y350000D01*
X345700Y351500D02*Y350000D01*
Y351500D02*X346200Y352000D01*
X346700D01*
X347200Y351500D01*
Y350000D01*
X345200Y352000D02*X345700Y351500D01*
X350400Y354000D02*Y350000D01*
X349900D02*X350400Y350500D01*
X348900Y350000D02*X349900D01*
X348400Y350500D02*X348900Y350000D01*
X348400Y351500D02*Y350500D01*
Y351500D02*X348900Y352000D01*
X349900D01*
X350400Y351500D01*
X353400Y354000D02*X354400Y350000D01*
X355400Y354000D01*
X358100Y352000D02*X358600Y351500D01*
X357100Y352000D02*X358100D01*
X356600Y351500D02*X357100Y352000D01*
X356600Y351500D02*Y350500D01*
X357100Y350000D01*
X358600Y352000D02*Y350500D01*
X359100Y350000D01*
X357100D02*X358100D01*
X358600Y350500D01*
X360800Y351500D02*Y350000D01*
Y351500D02*X361300Y352000D01*
X361800D01*
X362300Y351500D01*
Y350000D01*
X360300Y352000D02*X360800Y351500D01*
X364000Y350000D02*X365500D01*
X363500Y350500D02*X364000Y350000D01*
X363500Y351500D02*Y350500D01*
Y351500D02*X364000Y352000D01*
X365000D01*
X365500Y351500D01*
X363500Y351000D02*X365500D01*
Y351500D02*Y351000D01*
X372500Y327500D02*X374500D01*
X375000Y328000D01*
Y329200D02*Y328000D01*
X374500Y329700D02*X375000Y329200D01*
X373000Y329700D02*X374500D01*
X373000Y331500D02*Y327500D01*
X372500Y331500D02*X374500D01*
X375000Y331000D01*
Y330200D01*
X374500Y329700D02*X375000Y330200D01*
X377700Y329500D02*X378200Y329000D01*
X376700Y329500D02*X377700D01*
X376200Y329000D02*X376700Y329500D01*
X376200Y329000D02*Y328000D01*
X376700Y327500D01*
X378200Y329500D02*Y328000D01*
X378700Y327500D01*
X376700D02*X377700D01*
X378200Y328000D01*
X380400Y331500D02*Y328000D01*
X380900Y327500D01*
X379900Y330000D02*X380900D01*
X367500Y329500D02*X369500D01*
X367500Y339500D02*X369500D01*
X322500Y321000D02*X323000Y321500D01*
X324500D01*
X325000Y321000D01*
Y320000D01*
X322500Y317500D02*X325000Y320000D01*
X322500Y317500D02*X325000D01*
X326200Y321500D02*Y317500D01*
Y319000D02*X327700Y317500D01*
X326200Y319000D02*X327200Y320000D01*
X367500Y319500D02*X369500D01*
X352000Y281500D02*X352500Y281000D01*
X350500Y281500D02*X352000D01*
X350000Y281000D02*X350500Y281500D01*
X350000Y281000D02*Y280000D01*
X350500Y279500D01*
X352000D01*
X352500Y279000D01*
Y278000D01*
X352000Y277500D02*X352500Y278000D01*
X350500Y277500D02*X352000D01*
X350000Y278000D02*X350500Y277500D01*
X354200Y281500D02*Y277500D01*
X355500Y281500D02*X356200Y280800D01*
Y278200D01*
X355500Y277500D02*X356200Y278200D01*
X353700Y277500D02*X355500D01*
X353700Y281500D02*X355500D01*
X357400Y280500D02*Y277500D01*
Y280500D02*X358100Y281500D01*
X359200D01*
X359900Y280500D01*
Y277500D01*
X357400Y279500D02*X359900D01*
X352000Y291500D02*X352500Y291000D01*
X350500Y291500D02*X352000D01*
X350000Y291000D02*X350500Y291500D01*
X350000Y291000D02*Y290000D01*
X350500Y289500D01*
X352000D01*
X352500Y289000D01*
Y288000D01*
X352000Y287500D02*X352500Y288000D01*
X350500Y287500D02*X352000D01*
X350000Y288000D02*X350500Y287500D01*
X354400D02*X355700D01*
X353700Y288200D02*X354400Y287500D01*
X353700Y290800D02*Y288200D01*
Y290800D02*X354400Y291500D01*
X355700D01*
X356900D02*Y287500D01*
X358900D01*
X350000Y309500D02*X352000D01*
X351000Y310500D02*Y308500D01*
X350000Y299500D02*X352000D01*
X359500Y311500D02*X360000Y311000D01*
X358000Y311500D02*X359500D01*
X357500Y311000D02*X358000Y311500D01*
X357500Y311000D02*Y310000D01*
X358000Y309500D01*
X359500D01*
X360000Y309000D01*
Y308000D01*
X359500Y307500D02*X360000Y308000D01*
X358000Y307500D02*X359500D01*
X357500Y308000D02*X358000Y307500D01*
X361200Y309000D02*Y308000D01*
Y309000D02*X361700Y309500D01*
X362700D01*
X363200Y309000D01*
Y308000D01*
X362700Y307500D02*X363200Y308000D01*
X361700Y307500D02*X362700D01*
X361200Y308000D02*X361700Y307500D01*
X364400Y311500D02*Y308000D01*
X364900Y307500D01*
X367400Y309500D02*X367900Y309000D01*
X366400Y309500D02*X367400D01*
X365900Y309000D02*X366400Y309500D01*
X365900Y309000D02*Y308000D01*
X366400Y307500D01*
X367900Y309500D02*Y308000D01*
X368400Y307500D01*
X366400D02*X367400D01*
X367900Y308000D01*
X370100Y309000D02*Y307500D01*
Y309000D02*X370600Y309500D01*
X371600D01*
X369600D02*X370100Y309000D01*
X275000Y412500D02*X278000D01*
X279000Y411800D01*
Y410700D01*
X278000Y410000D01*
X275000D02*X278000D01*
X277000Y412500D02*Y410000D01*
X279000Y408800D02*Y406800D01*
X275000Y407800D02*X279000D01*
X275000Y405100D02*X276500D01*
X277000Y404600D01*
Y404100D01*
X276500Y403600D01*
X275000D02*X276500D01*
X277000Y403100D01*
Y402600D01*
X276500Y402100D01*
X275000D02*X276500D01*
X277000Y405600D02*X276500Y405100D01*
X275000Y400400D02*Y398900D01*
X275500Y400900D02*X275000Y400400D01*
X275500Y400900D02*X276500D01*
X277000Y400400D01*
Y399400D01*
X276500Y398900D01*
X276000Y400900D02*Y398900D01*
X276500D01*
X277000Y396200D02*X276500Y395700D01*
X277000Y397200D02*Y396200D01*
X276500Y397700D02*X277000Y397200D01*
X275500Y397700D02*X276500D01*
X275500D02*X275000Y397200D01*
Y396200D01*
X275500Y395700D01*
X274000Y397700D02*X273500Y397200D01*
Y396200D01*
X274000Y395700D01*
X277000D01*
Y393000D02*X276500Y392500D01*
X277000Y394000D02*Y393000D01*
X276500Y394500D02*X277000Y394000D01*
X275500Y394500D02*X276500D01*
X275500D02*X275000Y394000D01*
X275500Y392500D02*X277000D01*
X275500D02*X275000Y392000D01*
Y394000D02*Y393000D01*
X275500Y392500D01*
X278500Y390800D02*X279000Y390300D01*
Y389300D01*
X278500Y388800D01*
X275000Y389300D02*X275500Y388800D01*
X275000Y390300D02*Y389300D01*
X275500Y390800D02*X275000Y390300D01*
X277200D02*Y389300D01*
X277700Y388800D02*X278500D01*
X275500D02*X276700D01*
X277200Y389300D01*
X277700Y388800D02*X277200Y389300D01*
X278500Y387600D02*X279000Y387100D01*
Y385600D01*
X278500Y385100D01*
X277500D02*X278500D01*
X275000Y387600D02*X277500Y385100D01*
X275000Y387600D02*Y385100D01*
X275500Y383900D02*X275000Y383400D01*
X275500Y383900D02*X276300D01*
X277000Y383200D01*
Y382600D01*
X276300Y381900D01*
X275500D02*X276300D01*
X275000Y382400D02*X275500Y381900D01*
X275000Y383400D02*Y382400D01*
X277700Y383900D02*X277000Y383200D01*
X277700Y383900D02*X278500D01*
X279000Y383400D01*
Y382400D01*
X278500Y381900D01*
X277700D02*X278500D01*
X277000Y382600D02*X277700Y381900D01*
X235000Y429000D02*Y425500D01*
X235500Y425000D01*
X236500D01*
X237000Y425500D01*
Y429000D02*Y425500D01*
X238200Y428000D02*Y425000D01*
Y428000D02*X238900Y429000D01*
X240000D01*
X240700Y428000D01*
Y425000D01*
X238200Y427000D02*X240700D01*
X241900Y429000D02*X243900D01*
X244400Y428500D01*
Y427500D01*
X243900Y427000D02*X244400Y427500D01*
X242400Y427000D02*X243900D01*
X242400Y429000D02*Y425000D01*
X243200Y427000D02*X244400Y425000D01*
X245600Y429000D02*X247600D01*
X246600D02*Y425000D01*
X247500Y454000D02*X249500D01*
X250000Y453500D01*
Y452500D01*
X249500Y452000D02*X250000Y452500D01*
X248000Y452000D02*X249500D01*
X248000Y454000D02*Y450000D01*
X248800Y452000D02*X250000Y450000D01*
X251200D02*X253700Y454000D01*
X251200D02*X253700Y450000D01*
X267500Y435700D02*X268300Y436500D01*
Y432500D01*
X267500D02*X269000D01*
X270200Y433000D02*X270700Y432500D01*
X270200Y436000D02*Y433000D01*
Y436000D02*X270700Y436500D01*
X271700D01*
X272200Y436000D01*
Y433000D01*
X271700Y432500D02*X272200Y433000D01*
X270700Y432500D02*X271700D01*
X270200Y433500D02*X272200Y435500D01*
X273400Y436500D02*Y432500D01*
Y434000D02*X274900Y432500D01*
X273400Y434000D02*X274400Y435000D01*
X190000Y445500D02*X190500Y445000D01*
X190000Y448500D02*Y445500D01*
Y448500D02*X190500Y449000D01*
X191500D01*
X192000Y448500D01*
Y445500D01*
X191500Y445000D02*X192000Y445500D01*
X190500Y445000D02*X191500D01*
X190000Y446000D02*X192000Y448000D01*
X193200Y445000D02*X193700D01*
X194900Y448200D02*X195700Y449000D01*
Y445000D01*
X194900D02*X196400D01*
X197600Y447000D02*Y445500D01*
X198100Y445000D01*
X199100D01*
X199600Y445500D01*
Y447000D02*Y445500D01*
X200800Y449000D02*Y445000D01*
Y449000D02*X202800D01*
X200800Y447200D02*X202300D01*
X237500Y454000D02*X239500D01*
X238500D02*Y450000D01*
X240700D02*X243200Y454000D01*
X240700D02*X243200Y450000D01*
X162500Y425500D02*X163000Y425000D01*
X162500Y426300D02*Y425500D01*
Y426300D02*X163200Y427000D01*
X163800D01*
X164500Y426300D01*
Y425500D01*
X164000Y425000D02*X164500Y425500D01*
X163000Y425000D02*X164000D01*
X162500Y427700D02*X163200Y427000D01*
X162500Y428500D02*Y427700D01*
Y428500D02*X163000Y429000D01*
X164000D01*
X164500Y428500D01*
Y427700D01*
X163800Y427000D02*X164500Y427700D01*
X165700Y429000D02*Y425000D01*
Y429000D02*X167200Y427000D01*
X168700Y429000D01*
Y425000D01*
X169900Y429000D02*Y425000D01*
X172400Y429000D02*Y425000D01*
X169900Y427000D02*X172400D01*
X173600D02*X175600D01*
X173600Y425000D02*X175600Y427000D01*
X173600Y425000D02*X175600D01*
X175000Y486000D02*X175500Y486500D01*
X177000D01*
X177500Y486000D01*
Y485000D01*
X175000Y482500D02*X177500Y485000D01*
X175000Y482500D02*X177500D01*
X178700Y483000D02*X179200Y482500D01*
X178700Y486000D02*Y483000D01*
Y486000D02*X179200Y486500D01*
X180200D01*
X180700Y486000D01*
Y483000D01*
X180200Y482500D02*X180700Y483000D01*
X179200Y482500D02*X180200D01*
X178700Y483500D02*X180700Y485500D01*
X182400Y484000D02*Y481000D01*
X181900Y484500D02*X182400Y484000D01*
X182900Y484500D01*
X183900D01*
X184400Y484000D01*
Y483000D01*
X183900Y482500D02*X184400Y483000D01*
X182900Y482500D02*X183900D01*
X182400Y483000D02*X182900Y482500D01*
X185600Y486500D02*Y482500D01*
Y486500D02*X187600D01*
X185600Y484700D02*X187100D01*
X152500Y486000D02*X153000Y486500D01*
X154500D01*
X155000Y486000D01*
Y485000D01*
X152500Y482500D02*X155000Y485000D01*
X152500Y482500D02*X155000D01*
X156200Y483000D02*X156700Y482500D01*
X156200Y486000D02*Y483000D01*
Y486000D02*X156700Y486500D01*
X157700D01*
X158200Y486000D01*
Y483000D01*
X157700Y482500D02*X158200Y483000D01*
X156700Y482500D02*X157700D01*
X156200Y483500D02*X158200Y485500D01*
X159900Y484000D02*Y481000D01*
X159400Y484500D02*X159900Y484000D01*
X160400Y484500D01*
X161400D01*
X161900Y484000D01*
Y483000D01*
X161400Y482500D02*X161900Y483000D01*
X160400Y482500D02*X161400D01*
X159900Y483000D02*X160400Y482500D01*
X163100Y486500D02*Y482500D01*
Y486500D02*X165100D01*
X163100Y484700D02*X164600D01*
X120700Y451500D02*X121500D01*
Y448000D01*
X121000Y447500D02*X121500Y448000D01*
X120500Y447500D02*X121000D01*
X120000Y448000D02*X120500Y447500D01*
X120000Y448500D02*Y448000D01*
X122700Y449500D02*Y448000D01*
X123200Y447500D01*
X124200D01*
X124700Y448000D01*
Y449500D02*Y448000D01*
X126400Y449000D02*Y447500D01*
Y449000D02*X126900Y449500D01*
X127400D01*
X127900Y449000D01*
Y447500D01*
Y449000D02*X128400Y449500D01*
X128900D01*
X129400Y449000D01*
Y447500D01*
X125900Y449500D02*X126400Y449000D01*
X131100D02*Y446000D01*
X130600Y449500D02*X131100Y449000D01*
X131600Y449500D01*
X132600D01*
X133100Y449000D01*
Y448000D01*
X132600Y447500D02*X133100Y448000D01*
X131600Y447500D02*X132600D01*
X131100Y448000D02*X131600Y447500D01*
X134800D02*X136300D01*
X134300Y448000D02*X134800Y447500D01*
X134300Y449000D02*Y448000D01*
Y449000D02*X134800Y449500D01*
X135800D01*
X136300Y449000D01*
X134300Y448500D02*X136300D01*
Y449000D02*Y448500D01*
X138000Y449000D02*Y447500D01*
Y449000D02*X138500Y449500D01*
X139500D01*
X137500D02*X138000Y449000D01*
X290500Y425000D02*X292000D01*
X292500Y425500D01*
X292000Y426000D02*X292500Y425500D01*
X290500Y426000D02*X292000D01*
X290000Y426500D02*X290500Y426000D01*
X290000Y426500D02*X290500Y427000D01*
X292000D01*
X292500Y426500D01*
X290000Y425500D02*X290500Y425000D01*
X294200D02*X295700D01*
X293700Y425500D02*X294200Y425000D01*
X293700Y426500D02*Y425500D01*
Y426500D02*X294200Y427000D01*
X295200D01*
X295700Y426500D01*
X293700Y426000D02*X295700D01*
Y426500D02*Y426000D01*
X297400Y426500D02*Y425000D01*
Y426500D02*X297900Y427000D01*
X298400D01*
X298900Y426500D01*
Y425000D01*
X296900Y427000D02*X297400Y426500D01*
X300600Y425000D02*X302100D01*
X302600Y425500D01*
X302100Y426000D02*X302600Y425500D01*
X300600Y426000D02*X302100D01*
X300100Y426500D02*X300600Y426000D01*
X300100Y426500D02*X300600Y427000D01*
X302100D01*
X302600Y426500D01*
X300100Y425500D02*X300600Y425000D01*
X303800Y426500D02*Y425500D01*
Y426500D02*X304300Y427000D01*
X305300D01*
X305800Y426500D01*
Y425500D01*
X305300Y425000D02*X305800Y425500D01*
X304300Y425000D02*X305300D01*
X303800Y425500D02*X304300Y425000D01*
X307500Y426500D02*Y425000D01*
Y426500D02*X308000Y427000D01*
X309000D01*
X307000D02*X307500Y426500D01*
X310700Y425000D02*X312200D01*
X312700Y425500D01*
X312200Y426000D02*X312700Y425500D01*
X310700Y426000D02*X312200D01*
X310200Y426500D02*X310700Y426000D01*
X310200Y426500D02*X310700Y427000D01*
X312200D01*
X312700Y426500D01*
X310200Y425500D02*X310700Y425000D01*
X314400D02*X315900D01*
X313900Y425500D02*X314400Y425000D01*
X313900Y426500D02*Y425500D01*
Y426500D02*X314400Y427000D01*
X315400D01*
X315900Y426500D01*
X313900Y426000D02*X315900D01*
Y426500D02*Y426000D01*
X317600Y425000D02*X319100D01*
X317100Y425500D02*X317600Y425000D01*
X317100Y426500D02*Y425500D01*
Y426500D02*X317600Y427000D01*
X318600D01*
X319100Y426500D01*
X317100Y426000D02*X319100D01*
Y426500D02*Y426000D01*
X322300Y429000D02*Y425000D01*
X321800D02*X322300Y425500D01*
X320800Y425000D02*X321800D01*
X320300Y425500D02*X320800Y425000D01*
X320300Y426500D02*Y425500D01*
Y426500D02*X320800Y427000D01*
X321800D01*
X322300Y426500D01*
X323500Y425000D02*X324000D01*
X327200Y426500D02*Y423500D01*
X326700Y427000D02*X327200Y426500D01*
X325700Y427000D02*X326700D01*
X325200Y426500D02*X325700Y427000D01*
X325200Y426500D02*Y425500D01*
X325700Y425000D01*
X326700D01*
X327200Y425500D01*
X328400Y427000D02*Y425500D01*
X328900Y425000D01*
X329900D01*
X330400Y425500D01*
Y427000D02*Y425500D01*
X333100Y427000D02*X333600Y426500D01*
X332100Y427000D02*X333100D01*
X331600Y426500D02*X332100Y427000D01*
X331600Y426500D02*Y425500D01*
X332100Y425000D01*
X333600Y427000D02*Y425500D01*
X334100Y425000D01*
X332100D02*X333100D01*
X333600Y425500D01*
X337300Y429000D02*Y425000D01*
X336800D02*X337300Y425500D01*
X335800Y425000D02*X336800D01*
X335300Y425500D02*X335800Y425000D01*
X335300Y426500D02*Y425500D01*
Y426500D02*X335800Y427000D01*
X336800D01*
X337300Y426500D01*
X339000Y425000D02*X340500D01*
X338500Y425500D02*X339000Y425000D01*
X338500Y426500D02*Y425500D01*
Y426500D02*X339000Y427000D01*
X340000D01*
X340500Y426500D01*
X338500Y426000D02*X340500D01*
Y426500D02*Y426000D01*
X341700Y425000D02*X342200D01*
X343900Y427000D02*X345400D01*
X343400Y426500D02*X343900Y427000D01*
X343400Y426500D02*Y425500D01*
X343900Y425000D01*
X345400D01*
X346600Y426500D02*Y425500D01*
Y426500D02*X347100Y427000D01*
X348100D01*
X348600Y426500D01*
Y425500D01*
X348100Y425000D02*X348600Y425500D01*
X347100Y425000D02*X348100D01*
X346600Y425500D02*X347100Y425000D01*
X292000Y461500D02*X292500Y461000D01*
X290500Y461500D02*X292000D01*
X290000Y461000D02*X290500Y461500D01*
X290000Y461000D02*Y460000D01*
X290500Y459500D01*
X292000D01*
X292500Y459000D01*
Y458000D01*
X292000Y457500D02*X292500Y458000D01*
X290500Y457500D02*X292000D01*
X290000Y458000D02*X290500Y457500D01*
X294200D02*X295700D01*
X293700Y458000D02*X294200Y457500D01*
X293700Y459000D02*Y458000D01*
Y459000D02*X294200Y459500D01*
X295200D01*
X295700Y459000D01*
X293700Y458500D02*X295700D01*
Y459000D02*Y458500D01*
X297400Y459000D02*Y457500D01*
Y459000D02*X297900Y459500D01*
X298400D01*
X298900Y459000D01*
Y457500D01*
X296900Y459500D02*X297400Y459000D01*
X300600Y457500D02*X302100D01*
X302600Y458000D01*
X302100Y458500D02*X302600Y458000D01*
X300600Y458500D02*X302100D01*
X300100Y459000D02*X300600Y458500D01*
X300100Y459000D02*X300600Y459500D01*
X302100D01*
X302600Y459000D01*
X300100Y458000D02*X300600Y457500D01*
X303800Y459000D02*Y458000D01*
Y459000D02*X304300Y459500D01*
X305300D01*
X305800Y459000D01*
Y458000D01*
X305300Y457500D02*X305800Y458000D01*
X304300Y457500D02*X305300D01*
X303800Y458000D02*X304300Y457500D01*
X307500Y459000D02*Y457500D01*
Y459000D02*X308000Y459500D01*
X309000D01*
X307000D02*X307500Y459000D01*
X312200Y461500D02*X312700Y461000D01*
X310700Y461500D02*X312200D01*
X310200Y461000D02*X310700Y461500D01*
X310200Y461000D02*Y460000D01*
X310700Y459500D01*
X312200D01*
X312700Y459000D01*
Y458000D01*
X312200Y457500D02*X312700Y458000D01*
X310700Y457500D02*X312200D01*
X310200Y458000D02*X310700Y457500D01*
X314400D02*X315900D01*
X313900Y458000D02*X314400Y457500D01*
X313900Y459000D02*Y458000D01*
Y459000D02*X314400Y459500D01*
X315400D01*
X315900Y459000D01*
X313900Y458500D02*X315900D01*
Y459000D02*Y458500D01*
X317600Y457500D02*X319100D01*
X317100Y458000D02*X317600Y457500D01*
X317100Y459000D02*Y458000D01*
Y459000D02*X317600Y459500D01*
X318600D01*
X319100Y459000D01*
X317100Y458500D02*X319100D01*
Y459000D02*Y458500D01*
X322300Y461500D02*Y457500D01*
X321800D02*X322300Y458000D01*
X320800Y457500D02*X321800D01*
X320300Y458000D02*X320800Y457500D01*
X320300Y459000D02*Y458000D01*
Y459000D02*X320800Y459500D01*
X321800D01*
X322300Y459000D01*
X290000Y451000D02*Y448000D01*
Y451000D02*X290500Y451500D01*
X291500D01*
X292000Y451000D01*
Y448000D01*
X291500Y447500D02*X292000Y448000D01*
X290500Y447500D02*X291500D01*
X290000Y448000D02*X290500Y447500D01*
X293200Y449500D02*Y448000D01*
X293700Y447500D01*
X294700D01*
X295200Y448000D01*
Y449500D02*Y448000D01*
X296900Y451500D02*Y448000D01*
X297400Y447500D01*
X296400Y450000D02*X297400D01*
X300400Y451500D02*Y447500D01*
X299900D02*X300400Y448000D01*
X298900Y447500D02*X299900D01*
X298400Y448000D02*X298900Y447500D01*
X298400Y449000D02*Y448000D01*
Y449000D02*X298900Y449500D01*
X299900D01*
X300400Y449000D01*
X301600D02*Y448000D01*
Y449000D02*X302100Y449500D01*
X303100D01*
X303600Y449000D01*
Y448000D01*
X303100Y447500D02*X303600Y448000D01*
X302100Y447500D02*X303100D01*
X301600Y448000D02*X302100Y447500D01*
X304800Y449000D02*Y448000D01*
Y449000D02*X305300Y449500D01*
X306300D01*
X306800Y449000D01*
Y448000D01*
X306300Y447500D02*X306800Y448000D01*
X305300Y447500D02*X306300D01*
X304800Y448000D02*X305300Y447500D01*
X308500Y449000D02*Y447500D01*
Y449000D02*X309000Y449500D01*
X310000D01*
X308000D02*X308500Y449000D01*
X315000Y451500D02*X315500Y451000D01*
X313500Y451500D02*X315000D01*
X313000Y451000D02*X313500Y451500D01*
X313000Y451000D02*Y450000D01*
X313500Y449500D01*
X315000D01*
X315500Y449000D01*
Y448000D01*
X315000Y447500D02*X315500Y448000D01*
X313500Y447500D02*X315000D01*
X313000Y448000D02*X313500Y447500D01*
X317200D02*X318700D01*
X316700Y448000D02*X317200Y447500D01*
X316700Y449000D02*Y448000D01*
Y449000D02*X317200Y449500D01*
X318200D01*
X318700Y449000D01*
X316700Y448500D02*X318700D01*
Y449000D02*Y448500D01*
X320400Y449000D02*Y447500D01*
Y449000D02*X320900Y449500D01*
X321400D01*
X321900Y449000D01*
Y447500D01*
X319900Y449500D02*X320400Y449000D01*
X323600Y447500D02*X325100D01*
X325600Y448000D01*
X325100Y448500D02*X325600Y448000D01*
X323600Y448500D02*X325100D01*
X323100Y449000D02*X323600Y448500D01*
X323100Y449000D02*X323600Y449500D01*
X325100D01*
X325600Y449000D01*
X323100Y448000D02*X323600Y447500D01*
X326800Y449000D02*Y448000D01*
Y449000D02*X327300Y449500D01*
X328300D01*
X328800Y449000D01*
Y448000D01*
X328300Y447500D02*X328800Y448000D01*
X327300Y447500D02*X328300D01*
X326800Y448000D02*X327300Y447500D01*
X330500Y449000D02*Y447500D01*
Y449000D02*X331000Y449500D01*
X332000D01*
X330000D02*X330500Y449000D01*
X335000Y447500D02*X337000D01*
X337500Y448000D01*
Y449200D02*Y448000D01*
X337000Y449700D02*X337500Y449200D01*
X335500Y449700D02*X337000D01*
X335500Y451500D02*Y447500D01*
X335000Y451500D02*X337000D01*
X337500Y451000D01*
Y450200D01*
X337000Y449700D02*X337500Y450200D01*
X338700Y449000D02*Y448000D01*
Y449000D02*X339200Y449500D01*
X340200D01*
X340700Y449000D01*
Y448000D01*
X340200Y447500D02*X340700Y448000D01*
X339200Y447500D02*X340200D01*
X338700Y448000D02*X339200Y447500D01*
X343400Y449500D02*X343900Y449000D01*
X342400Y449500D02*X343400D01*
X341900Y449000D02*X342400Y449500D01*
X341900Y449000D02*Y448000D01*
X342400Y447500D01*
X343900Y449500D02*Y448000D01*
X344400Y447500D01*
X342400D02*X343400D01*
X343900Y448000D01*
X346100Y449000D02*Y447500D01*
Y449000D02*X346600Y449500D01*
X347600D01*
X345600D02*X346100Y449000D01*
X350800Y451500D02*Y447500D01*
X350300D02*X350800Y448000D01*
X349300Y447500D02*X350300D01*
X348800Y448000D02*X349300Y447500D01*
X348800Y449000D02*Y448000D01*
Y449000D02*X349300Y449500D01*
X350300D01*
X350800Y449000D01*
X290000Y441500D02*X292000D01*
X292500Y441000D01*
Y440000D01*
X292000Y439500D02*X292500Y440000D01*
X290500Y439500D02*X292000D01*
X290500Y441500D02*Y437500D01*
X291300Y439500D02*X292500Y437500D01*
X294200D02*X295700D01*
X293700Y438000D02*X294200Y437500D01*
X293700Y439000D02*Y438000D01*
Y439000D02*X294200Y439500D01*
X295200D01*
X295700Y439000D01*
X293700Y438500D02*X295700D01*
Y439000D02*Y438500D01*
X296900Y439500D02*X297900Y437500D01*
X298900Y439500D02*X297900Y437500D01*
X300100Y440500D02*Y440400D01*
Y439000D02*Y437500D01*
X301600D02*X303100D01*
X303600Y438000D01*
X303100Y438500D02*X303600Y438000D01*
X301600Y438500D02*X303100D01*
X301100Y439000D02*X301600Y438500D01*
X301100Y439000D02*X301600Y439500D01*
X303100D01*
X303600Y439000D01*
X301100Y438000D02*X301600Y437500D01*
X304800Y440500D02*Y440400D01*
Y439000D02*Y437500D01*
X305800Y439000D02*Y438000D01*
Y439000D02*X306300Y439500D01*
X307300D01*
X307800Y439000D01*
Y438000D01*
X307300Y437500D02*X307800Y438000D01*
X306300Y437500D02*X307300D01*
X305800Y438000D02*X306300Y437500D01*
X309500Y439000D02*Y437500D01*
Y439000D02*X310000Y439500D01*
X310500D01*
X311000Y439000D01*
Y437500D01*
X309000Y439500D02*X309500Y439000D01*
X314000Y440700D02*X314800Y441500D01*
Y437500D01*
X314000D02*X315500D01*
X316700D02*X317200D01*
X318400Y438000D02*X318900Y437500D01*
X318400Y441000D02*Y438000D01*
Y441000D02*X318900Y441500D01*
X319900D01*
X320400Y441000D01*
Y438000D01*
X319900Y437500D02*X320400Y438000D01*
X318900Y437500D02*X319900D01*
X318400Y438500D02*X320400Y440500D01*
X20000Y319500D02*X22000D01*
X27500Y409500D02*X29500D01*
X29000Y392500D02*Y390500D01*
X28500Y390000D01*
X27500D02*X28500D01*
X27000Y390500D02*X27500Y390000D01*
X27000Y392000D02*Y390500D01*
X25000Y392000D02*X29000D01*
X27000Y391200D02*X25000Y390000D01*
Y388800D02*X29000D01*
Y386800D01*
X27200Y388800D02*Y387300D01*
X25000Y385600D02*X29000D01*
X27000Y384100D01*
X29000Y382600D01*
X25000D02*X29000D01*
Y379900D02*X28500Y379400D01*
X29000Y380900D02*Y379900D01*
X28500Y381400D02*X29000Y380900D01*
X25500Y381400D02*X28500D01*
X25500D02*X25000Y380900D01*
X27200Y379900D02*X26700Y379400D01*
X27200Y381400D02*Y379900D01*
X25000Y380900D02*Y379900D01*
X25500Y379400D01*
X26700D01*
X25000Y377700D02*X27000Y376200D01*
X28500D01*
X29000Y376700D02*X28500Y376200D01*
X29000Y377700D02*Y376700D01*
X28500Y378200D02*X29000Y377700D01*
X27500Y378200D02*X28500D01*
X27500D02*X27000Y377700D01*
Y376200D01*
X25000Y375000D02*X29000D01*
X25000Y372500D02*X29000D01*
X27000Y375000D02*Y372500D01*
X25000Y370600D02*Y369300D01*
X25700Y371300D02*X25000Y370600D01*
X25700Y371300D02*X28300D01*
X29000Y370600D01*
Y369300D01*
X27000Y368100D02*X29000D01*
X27000D02*X25000Y367600D01*
X27000Y366600D01*
X25000Y365600D01*
X27000Y365100D01*
X29000D01*
X100000Y461000D02*X100500Y461500D01*
X102000D01*
X102500Y461000D01*
Y460000D01*
X100000Y457500D02*X102500Y460000D01*
X100000Y457500D02*X102500D01*
X103700Y461000D02*X104200Y461500D01*
X105700D01*
X106200Y461000D01*
Y460000D01*
X103700Y457500D02*X106200Y460000D01*
X103700Y457500D02*X106200D01*
X107400Y458000D02*X107900Y457500D01*
X107400Y461000D02*Y458000D01*
Y461000D02*X107900Y461500D01*
X108900D01*
X109400Y461000D01*
Y458000D01*
X108900Y457500D02*X109400Y458000D01*
X107900Y457500D02*X108900D01*
X107400Y458500D02*X109400Y460500D01*
X58200Y447500D02*X59500D01*
X57500Y448200D02*X58200Y447500D01*
X57500Y450800D02*Y448200D01*
Y450800D02*X58200Y451500D01*
X59500D01*
X60700Y449000D02*Y448000D01*
Y449000D02*X61200Y449500D01*
X62200D01*
X62700Y449000D01*
Y448000D01*
X62200Y447500D02*X62700Y448000D01*
X61200Y447500D02*X62200D01*
X60700Y448000D02*X61200Y447500D01*
X64400Y449000D02*Y447500D01*
Y449000D02*X64900Y449500D01*
X65400D01*
X65900Y449000D01*
Y447500D01*
X63900Y449500D02*X64400Y449000D01*
X67600Y451500D02*Y448000D01*
X68100Y447500D01*
X67100Y450000D02*X68100D01*
X69600Y449000D02*Y447500D01*
Y449000D02*X70100Y449500D01*
X71100D01*
X69100D02*X69600Y449000D01*
X72300D02*Y448000D01*
Y449000D02*X72800Y449500D01*
X73800D01*
X74300Y449000D01*
Y448000D01*
X73800Y447500D02*X74300Y448000D01*
X72800Y447500D02*X73800D01*
X72300Y448000D02*X72800Y447500D01*
X75500Y451500D02*Y448000D01*
X76000Y447500D01*
X77000Y451500D02*Y448000D01*
X77500Y447500D01*
X79000D02*X80500D01*
X78500Y448000D02*X79000Y447500D01*
X78500Y449000D02*Y448000D01*
Y449000D02*X79000Y449500D01*
X80000D01*
X80500Y449000D01*
X78500Y448500D02*X80500D01*
Y449000D02*Y448500D01*
X82200Y449000D02*Y447500D01*
Y449000D02*X82700Y449500D01*
X83700D01*
X81700D02*X82200Y449000D01*
X57500Y414000D02*X59500Y416500D01*
X57500Y414000D02*X60000D01*
X59500Y416500D02*Y412500D01*
X61200D02*X61700D01*
X63400D02*X65400Y416500D01*
X62900D02*X65400D01*
X66600D02*Y412500D01*
Y414000D02*X68100Y412500D01*
X66600Y414000D02*X67600Y415000D01*
X27500Y419500D02*X29500D01*
X28500Y420500D02*Y418500D01*
X27500Y462000D02*X31500D01*
Y460700D02*X30800Y460000D01*
X28200D02*X30800D01*
X27500Y460700D02*X28200Y460000D01*
X27500Y462500D02*Y460700D01*
X31500Y462500D02*Y460700D01*
X27500Y458800D02*X31500D01*
X27500Y456300D02*X31500D01*
X29500Y458800D02*Y456300D01*
X31500Y455100D02*Y453100D01*
X27500Y454100D02*X31500D01*
X31000Y451900D02*X31500Y451400D01*
Y449900D01*
X31000Y449400D01*
X30000D02*X31000D01*
X27500Y451900D02*X30000Y449400D01*
X27500Y451900D02*Y449400D01*
X31000Y448200D02*X31500Y447700D01*
Y446200D01*
X31000Y445700D01*
X30000D02*X31000D01*
X27500Y448200D02*X30000Y445700D01*
X27500Y448200D02*Y445700D01*
Y467000D02*X29500D01*
X28500Y468000D02*Y466000D01*
X27500Y472000D02*X29500D01*
X102500Y220500D02*X103000Y220000D01*
X102500Y223500D02*Y220500D01*
Y223500D02*X103000Y224000D01*
X104000D01*
X104500Y223500D01*
Y220500D01*
X104000Y220000D02*X104500Y220500D01*
X103000Y220000D02*X104000D01*
X102500Y221000D02*X104500Y223000D01*
X105700Y220000D02*X106200D01*
X107400Y223200D02*X108200Y224000D01*
Y220000D01*
X107400D02*X108900D01*
X110100Y222000D02*Y220500D01*
X110600Y220000D01*
X111600D01*
X112100Y220500D01*
Y222000D02*Y220500D01*
X113300Y224000D02*Y220000D01*
Y224000D02*X115300D01*
X113300Y222200D02*X114800D01*
X100700Y304000D02*X101500D01*
Y300500D01*
X101000Y300000D02*X101500Y300500D01*
X100500Y300000D02*X101000D01*
X100000Y300500D02*X100500Y300000D01*
X100000Y301000D02*Y300500D01*
X102700Y302000D02*Y300500D01*
X103200Y300000D01*
X104200D01*
X104700Y300500D01*
Y302000D02*Y300500D01*
X106400Y301500D02*Y300000D01*
Y301500D02*X106900Y302000D01*
X107400D01*
X107900Y301500D01*
Y300000D01*
Y301500D02*X108400Y302000D01*
X108900D01*
X109400Y301500D01*
Y300000D01*
X105900Y302000D02*X106400Y301500D01*
X111100D02*Y298500D01*
X110600Y302000D02*X111100Y301500D01*
X111600Y302000D01*
X112600D01*
X113100Y301500D01*
Y300500D01*
X112600Y300000D02*X113100Y300500D01*
X111600Y300000D02*X112600D01*
X111100Y300500D02*X111600Y300000D01*
X114800D02*X116300D01*
X114300Y300500D02*X114800Y300000D01*
X114300Y301500D02*Y300500D01*
Y301500D02*X114800Y302000D01*
X115800D01*
X116300Y301500D01*
X114300Y301000D02*X116300D01*
Y301500D02*Y301000D01*
X118000Y301500D02*Y300000D01*
Y301500D02*X118500Y302000D01*
X119500D01*
X117500D02*X118000Y301500D01*
X32500Y220500D02*X33000Y220000D01*
X32500Y223500D02*Y220500D01*
Y223500D02*X33000Y224000D01*
X34000D01*
X34500Y223500D01*
Y220500D01*
X34000Y220000D02*X34500Y220500D01*
X33000Y220000D02*X34000D01*
X32500Y221000D02*X34500Y223000D01*
X35700Y220000D02*X36200D01*
X37400Y223200D02*X38200Y224000D01*
Y220000D01*
X37400D02*X38900D01*
X40100Y222000D02*Y220500D01*
X40600Y220000D01*
X41600D01*
X42100Y220500D01*
Y222000D02*Y220500D01*
X43300Y224000D02*Y220000D01*
Y224000D02*X45300D01*
X43300Y222200D02*X44800D01*
X29500Y156500D02*X30000Y156000D01*
X28000Y156500D02*X29500D01*
X27500Y156000D02*X28000Y156500D01*
X27500Y156000D02*Y155000D01*
X28000Y154500D01*
X29500D01*
X30000Y154000D01*
Y153000D01*
X29500Y152500D02*X30000Y153000D01*
X28000Y152500D02*X29500D01*
X27500Y153000D02*X28000Y152500D01*
X31700D02*X33200D01*
X31200Y153000D02*X31700Y152500D01*
X31200Y154000D02*Y153000D01*
Y154000D02*X31700Y154500D01*
X32700D01*
X33200Y154000D01*
X31200Y153500D02*X33200D01*
Y154000D02*Y153500D01*
X34900Y154000D02*Y152500D01*
Y154000D02*X35400Y154500D01*
X35900D01*
X36400Y154000D01*
Y152500D01*
X34400Y154500D02*X34900Y154000D01*
X38100Y152500D02*X39600D01*
X40100Y153000D01*
X39600Y153500D02*X40100Y153000D01*
X38100Y153500D02*X39600D01*
X37600Y154000D02*X38100Y153500D01*
X37600Y154000D02*X38100Y154500D01*
X39600D01*
X40100Y154000D01*
X37600Y153000D02*X38100Y152500D01*
X41300Y154000D02*Y153000D01*
Y154000D02*X41800Y154500D01*
X42800D01*
X43300Y154000D01*
Y153000D01*
X42800Y152500D02*X43300Y153000D01*
X41800Y152500D02*X42800D01*
X41300Y153000D02*X41800Y152500D01*
X45000Y154000D02*Y152500D01*
Y154000D02*X45500Y154500D01*
X46500D01*
X44500D02*X45000Y154000D01*
X31800Y129900D02*X33800D01*
X25000Y255700D02*X25800Y256500D01*
Y252500D01*
X25000D02*X26500D01*
X27700Y253000D02*X28200Y252500D01*
X27700Y256000D02*Y253000D01*
Y256000D02*X28200Y256500D01*
X29200D01*
X29700Y256000D01*
Y253000D01*
X29200Y252500D02*X29700Y253000D01*
X28200Y252500D02*X29200D01*
X27700Y253500D02*X29700Y255500D01*
X30900Y256500D02*Y252500D01*
Y254000D02*X32400Y252500D01*
X30900Y254000D02*X31900Y255000D01*
X57500Y285500D02*Y282500D01*
Y285500D02*X58200Y286500D01*
X59300D01*
X60000Y285500D01*
Y282500D01*
X57500Y284500D02*X60000D01*
X61200Y286500D02*X63200D01*
X62200D02*Y282500D01*
X64900Y286500D02*Y283000D01*
X65400Y282500D01*
X64400Y285000D02*X65400D01*
X66400Y285500D02*Y285400D01*
Y284000D02*Y282500D01*
X67900Y284000D02*Y282500D01*
Y284000D02*X68400Y284500D01*
X68900D01*
X69400Y284000D01*
Y282500D01*
X67400Y284500D02*X67900Y284000D01*
X70600Y284500D02*Y283000D01*
X71100Y282500D01*
X72600Y284500D02*Y281500D01*
X72100Y281000D02*X72600Y281500D01*
X71100Y281000D02*X72100D01*
X70600Y281500D02*X71100Y281000D01*
Y282500D02*X72100D01*
X72600Y283000D01*
X73800D02*X74300Y282500D01*
X73800Y283800D02*Y283000D01*
Y283800D02*X74500Y284500D01*
X75100D01*
X75800Y283800D01*
Y283000D01*
X75300Y282500D02*X75800Y283000D01*
X74300Y282500D02*X75300D01*
X73800Y285200D02*X74500Y284500D01*
X73800Y286000D02*Y285200D01*
Y286000D02*X74300Y286500D01*
X75300D01*
X75800Y286000D01*
Y285200D01*
X75100Y284500D02*X75800Y285200D01*
X77000Y283000D02*X77500Y282500D01*
X77000Y283800D02*Y283000D01*
Y283800D02*X77700Y284500D01*
X78300D01*
X79000Y283800D01*
Y283000D01*
X78500Y282500D02*X79000Y283000D01*
X77500Y282500D02*X78500D01*
X77000Y285200D02*X77700Y284500D01*
X77000Y286000D02*Y285200D01*
Y286000D02*X77500Y286500D01*
X78500D01*
X79000Y286000D01*
Y285200D01*
X78300Y284500D02*X79000Y285200D01*
X70000Y321000D02*X70500Y321500D01*
X72000D01*
X72500Y321000D01*
Y320000D01*
X70000Y317500D02*X72500Y320000D01*
X70000Y317500D02*X72500D01*
X73700Y321000D02*X74200Y321500D01*
X75700D01*
X76200Y321000D01*
Y320000D01*
X73700Y317500D02*X76200Y320000D01*
X73700Y317500D02*X76200D01*
X77400Y318000D02*X77900Y317500D01*
X77400Y321000D02*Y318000D01*
Y321000D02*X77900Y321500D01*
X78900D01*
X79400Y321000D01*
Y318000D01*
X78900Y317500D02*X79400Y318000D01*
X77900Y317500D02*X78900D01*
X77400Y318500D02*X79400Y320500D01*
X27500Y292000D02*Y289000D01*
Y292000D02*X28200Y293000D01*
X29300D01*
X30000Y292000D01*
Y289000D01*
X27500Y291000D02*X30000D01*
X31700Y290500D02*Y289000D01*
Y290500D02*X32200Y291000D01*
X32700D01*
X33200Y290500D01*
Y289000D01*
X31200Y291000D02*X31700Y290500D01*
X34900Y289000D02*X36400D01*
X34400Y289500D02*X34900Y289000D01*
X34400Y290500D02*Y289500D01*
Y290500D02*X34900Y291000D01*
X35900D01*
X36400Y290500D01*
X34400Y290000D02*X36400D01*
Y290500D02*Y290000D01*
X38100Y290500D02*Y289000D01*
Y290500D02*X38600Y291000D01*
X39100D01*
X39600Y290500D01*
Y289000D01*
Y290500D02*X40100Y291000D01*
X40600D01*
X41100Y290500D01*
Y289000D01*
X37600Y291000D02*X38100Y290500D01*
X42300D02*Y289500D01*
Y290500D02*X42800Y291000D01*
X43800D01*
X44300Y290500D01*
Y289500D01*
X43800Y289000D02*X44300Y289500D01*
X42800Y289000D02*X43800D01*
X42300Y289500D02*X42800Y289000D01*
X46000Y290500D02*Y289000D01*
Y290500D02*X46500Y291000D01*
X47000D01*
X47500Y290500D01*
Y289000D01*
Y290500D02*X48000Y291000D01*
X48500D01*
X49000Y290500D01*
Y289000D01*
X45500Y291000D02*X46000Y290500D01*
X50700Y289000D02*X52200D01*
X50200Y289500D02*X50700Y289000D01*
X50200Y290500D02*Y289500D01*
Y290500D02*X50700Y291000D01*
X51700D01*
X52200Y290500D01*
X50200Y290000D02*X52200D01*
Y290500D02*Y290000D01*
X53900Y293000D02*Y289500D01*
X54400Y289000D01*
X53400Y291500D02*X54400D01*
X55900Y289000D02*X57400D01*
X55400Y289500D02*X55900Y289000D01*
X55400Y290500D02*Y289500D01*
Y290500D02*X55900Y291000D01*
X56900D01*
X57400Y290500D01*
X55400Y290000D02*X57400D01*
Y290500D02*Y290000D01*
X59100Y290500D02*Y289000D01*
Y290500D02*X59600Y291000D01*
X60600D01*
X58600D02*X59100Y290500D01*
X50000Y321500D02*Y317500D01*
X52000D01*
X53200Y319700D02*X54700D01*
X53200Y317500D02*X55200D01*
X53200Y321500D02*Y317500D01*
Y321500D02*X55200D01*
X56900D02*Y317500D01*
X58200Y321500D02*X58900Y320800D01*
Y318200D01*
X58200Y317500D02*X58900Y318200D01*
X56400Y317500D02*X58200D01*
X56400Y321500D02*X58200D01*
X301500Y223500D02*X303500D01*
X304000Y223000D01*
Y222000D01*
X303500Y221500D02*X304000Y222000D01*
X302000Y221500D02*X303500D01*
X302000Y223500D02*Y219500D01*
X302800Y221500D02*X304000Y219500D01*
X306700Y221500D02*X307200Y221000D01*
X305700Y221500D02*X306700D01*
X305200Y221000D02*X305700Y221500D01*
X305200Y221000D02*Y220000D01*
X305700Y219500D01*
X307200Y221500D02*Y220000D01*
X307700Y219500D01*
X305700D02*X306700D01*
X307200Y220000D01*
X308900Y222500D02*Y222400D01*
Y221000D02*Y219500D01*
X310400Y221000D02*Y219500D01*
Y221000D02*X310900Y221500D01*
X311400D01*
X311900Y221000D01*
Y219500D01*
X309900Y221500D02*X310400Y221000D01*
X316900Y223500D02*X317400Y223000D01*
X315400Y223500D02*X316900D01*
X314900Y223000D02*X315400Y223500D01*
X314900Y223000D02*Y220000D01*
X315400Y219500D01*
X316900D01*
X317400Y220000D01*
Y221000D02*Y220000D01*
X316900Y221500D02*X317400Y221000D01*
X315900Y221500D02*X316900D01*
X320100D02*X320600Y221000D01*
X319100Y221500D02*X320100D01*
X318600Y221000D02*X319100Y221500D01*
X318600Y221000D02*Y220000D01*
X319100Y219500D01*
X320600Y221500D02*Y220000D01*
X321100Y219500D01*
X319100D02*X320100D01*
X320600Y220000D01*
X322300Y221500D02*Y220000D01*
X322800Y219500D01*
X323800D01*
X324300Y220000D01*
Y221500D02*Y220000D01*
X327000Y221500D02*X327500Y221000D01*
X326000Y221500D02*X327000D01*
X325500Y221000D02*X326000Y221500D01*
X325500Y221000D02*Y220000D01*
X326000Y219500D01*
X327000D01*
X327500Y220000D01*
X325500Y218500D02*X326000Y218000D01*
X327000D01*
X327500Y218500D01*
Y221500D02*Y218500D01*
X329200Y219500D02*X330700D01*
X328700Y220000D02*X329200Y219500D01*
X328700Y221000D02*Y220000D01*
Y221000D02*X329200Y221500D01*
X330200D01*
X330700Y221000D01*
X328700Y220500D02*X330700D01*
Y221000D02*Y220500D01*
X282500Y253500D02*X283000Y254000D01*
X284500D01*
X285000Y253500D01*
Y252500D01*
X282500Y250000D02*X285000Y252500D01*
X282500Y250000D02*X285000D01*
X286200Y253500D02*X286700Y254000D01*
X288200D01*
X288700Y253500D01*
Y252500D01*
X286200Y250000D02*X288700Y252500D01*
X286200Y250000D02*X288700D01*
X289900Y250500D02*X290400Y250000D01*
X289900Y253500D02*Y250500D01*
Y253500D02*X290400Y254000D01*
X291400D01*
X291900Y253500D01*
Y250500D01*
X291400Y250000D02*X291900Y250500D01*
X290400Y250000D02*X291400D01*
X289900Y251000D02*X291900Y253000D01*
X302500Y254000D02*Y250000D01*
X304500D01*
X305700Y252200D02*X307200D01*
X305700Y250000D02*X307700D01*
X305700Y254000D02*Y250000D01*
Y254000D02*X307700D01*
X309400D02*Y250000D01*
X310700Y254000D02*X311400Y253300D01*
Y250700D01*
X310700Y250000D02*X311400Y250700D01*
X308900Y250000D02*X310700D01*
X308900Y254000D02*X310700D01*
X245000Y220500D02*X245500Y220000D01*
X245000Y223500D02*Y220500D01*
Y223500D02*X245500Y224000D01*
X246500D01*
X247000Y223500D01*
Y220500D01*
X246500Y220000D02*X247000Y220500D01*
X245500Y220000D02*X246500D01*
X245000Y221000D02*X247000Y223000D01*
X248200Y220000D02*X248700D01*
X249900Y223200D02*X250700Y224000D01*
Y220000D01*
X249900D02*X251400D01*
X252600Y222000D02*Y220500D01*
X253100Y220000D01*
X254100D01*
X254600Y220500D01*
Y222000D02*Y220500D01*
X255800Y224000D02*Y220000D01*
Y224000D02*X257800D01*
X255800Y222200D02*X257300D01*
X255000Y184000D02*X256000D01*
X255500D02*Y180000D01*
X255000D02*X256000D01*
X259200Y184000D02*X259700Y183500D01*
X257700Y184000D02*X259200D01*
X257200Y183500D02*X257700Y184000D01*
X257200Y183500D02*Y182500D01*
X257700Y182000D01*
X259200D01*
X259700Y181500D01*
Y180500D01*
X259200Y180000D02*X259700Y180500D01*
X257700Y180000D02*X259200D01*
X257200Y180500D02*X257700Y180000D01*
X261400Y184000D02*Y180000D01*
X260900Y184000D02*X262900D01*
X263400Y183500D01*
Y182500D01*
X262900Y182000D02*X263400Y182500D01*
X261400Y182000D02*X262900D01*
X245700Y254000D02*X246500D01*
Y250500D01*
X246000Y250000D02*X246500Y250500D01*
X245500Y250000D02*X246000D01*
X245000Y250500D02*X245500Y250000D01*
X245000Y251000D02*Y250500D01*
X247700Y252000D02*Y250500D01*
X248200Y250000D01*
X249200D01*
X249700Y250500D01*
Y252000D02*Y250500D01*
X251400Y251500D02*Y250000D01*
Y251500D02*X251900Y252000D01*
X252400D01*
X252900Y251500D01*
Y250000D01*
Y251500D02*X253400Y252000D01*
X253900D01*
X254400Y251500D01*
Y250000D01*
X250900Y252000D02*X251400Y251500D01*
X256100D02*Y248500D01*
X255600Y252000D02*X256100Y251500D01*
X256600Y252000D01*
X257600D01*
X258100Y251500D01*
Y250500D01*
X257600Y250000D02*X258100Y250500D01*
X256600Y250000D02*X257600D01*
X256100Y250500D02*X256600Y250000D01*
X259800D02*X261300D01*
X259300Y250500D02*X259800Y250000D01*
X259300Y251500D02*Y250500D01*
Y251500D02*X259800Y252000D01*
X260800D01*
X261300Y251500D01*
X259300Y251000D02*X261300D01*
Y251500D02*Y251000D01*
X263000Y251500D02*Y250000D01*
Y251500D02*X263500Y252000D01*
X264500D01*
X262500D02*X263000Y251500D01*
X330000Y254500D02*X332000D01*
X348000Y251500D02*Y247500D01*
X347500Y251500D02*X349500D01*
X350000Y251000D01*
Y250000D01*
X349500Y249500D02*X350000Y250000D01*
X348000Y249500D02*X349500D01*
X351200Y249000D02*Y248000D01*
Y249000D02*X351700Y249500D01*
X352700D01*
X353200Y249000D01*
Y248000D01*
X352700Y247500D02*X353200Y248000D01*
X351700Y247500D02*X352700D01*
X351200Y248000D02*X351700Y247500D01*
X354400Y249500D02*Y248000D01*
X354900Y247500D01*
X355400D01*
X355900Y248000D01*
Y249500D02*Y248000D01*
X356400Y247500D01*
X356900D01*
X357400Y248000D01*
Y249500D02*Y248000D01*
X359100Y247500D02*X360600D01*
X358600Y248000D02*X359100Y247500D01*
X358600Y249000D02*Y248000D01*
Y249000D02*X359100Y249500D01*
X360100D01*
X360600Y249000D01*
X358600Y248500D02*X360600D01*
Y249000D02*Y248500D01*
X362300Y249000D02*Y247500D01*
Y249000D02*X362800Y249500D01*
X363800D01*
X361800D02*X362300Y249000D01*
X370000Y206500D02*Y202500D01*
X372000D01*
X373200Y204700D02*X374700D01*
X373200Y202500D02*X375200D01*
X373200Y206500D02*Y202500D01*
Y206500D02*X375200D01*
X376900D02*Y202500D01*
X378200Y206500D02*X378900Y205800D01*
Y203200D01*
X378200Y202500D02*X378900Y203200D01*
X376400Y202500D02*X378200D01*
X376400Y206500D02*X378200D01*
X352500Y219500D02*X354500D01*
X355000Y226500D02*X357000D01*
X355000D02*Y224500D01*
X355500Y225000D01*
X356500D01*
X357000Y224500D01*
Y223000D01*
X356500Y222500D02*X357000Y223000D01*
X355500Y222500D02*X356500D01*
X355000Y223000D02*X355500Y222500D01*
X358200Y226500D02*X359200Y222500D01*
X360200Y226500D01*
X369000Y236000D02*X371000D01*
X370000Y237000D02*Y235000D01*
X379500Y236000D02*X381500D01*
X167000Y156500D02*X167500Y156000D01*
X165500Y156500D02*X167000D01*
X165000Y156000D02*X165500Y156500D01*
X165000Y156000D02*Y155000D01*
X165500Y154500D01*
X167000D01*
X167500Y154000D01*
Y153000D01*
X167000Y152500D02*X167500Y153000D01*
X165500Y152500D02*X167000D01*
X165000Y153000D02*X165500Y152500D01*
X169200D02*X170700D01*
X168700Y153000D02*X169200Y152500D01*
X168700Y154000D02*Y153000D01*
Y154000D02*X169200Y154500D01*
X170200D01*
X170700Y154000D01*
X168700Y153500D02*X170700D01*
Y154000D02*Y153500D01*
X172400Y154000D02*Y152500D01*
Y154000D02*X172900Y154500D01*
X173400D01*
X173900Y154000D01*
Y152500D01*
X171900Y154500D02*X172400Y154000D01*
X175600Y152500D02*X177100D01*
X177600Y153000D01*
X177100Y153500D02*X177600Y153000D01*
X175600Y153500D02*X177100D01*
X175100Y154000D02*X175600Y153500D01*
X175100Y154000D02*X175600Y154500D01*
X177100D01*
X177600Y154000D01*
X175100Y153000D02*X175600Y152500D01*
X178800Y154000D02*Y153000D01*
Y154000D02*X179300Y154500D01*
X180300D01*
X180800Y154000D01*
Y153000D01*
X180300Y152500D02*X180800Y153000D01*
X179300Y152500D02*X180300D01*
X178800Y153000D02*X179300Y152500D01*
X182500Y154000D02*Y152500D01*
Y154000D02*X183000Y154500D01*
X184000D01*
X182000D02*X182500Y154000D01*
X171700Y129600D02*X173700D01*
X115000Y184000D02*X116000D01*
X115500D02*Y180000D01*
X115000D02*X116000D01*
X119200Y184000D02*X119700Y183500D01*
X117700Y184000D02*X119200D01*
X117200Y183500D02*X117700Y184000D01*
X117200Y183500D02*Y182500D01*
X117700Y182000D01*
X119200D01*
X119700Y181500D01*
Y180500D01*
X119200Y180000D02*X119700Y180500D01*
X117700Y180000D02*X119200D01*
X117200Y180500D02*X117700Y180000D01*
X121400Y184000D02*Y180000D01*
X120900Y184000D02*X122900D01*
X123400Y183500D01*
Y182500D01*
X122900Y182000D02*X123400Y182500D01*
X121400Y182000D02*X122900D01*
X362500Y176000D02*X363000Y176500D01*
X364500D01*
X365000Y176000D01*
Y175000D01*
X362500Y172500D02*X365000Y175000D01*
X362500Y172500D02*X365000D01*
X366200Y176000D02*X366700Y176500D01*
X368200D01*
X368700Y176000D01*
Y175000D01*
X366200Y172500D02*X368700Y175000D01*
X366200Y172500D02*X368700D01*
X369900Y173000D02*X370400Y172500D01*
X369900Y176000D02*Y173000D01*
Y176000D02*X370400Y176500D01*
X371400D01*
X371900Y176000D01*
Y173000D01*
X371400Y172500D02*X371900Y173000D01*
X370400Y172500D02*X371400D01*
X369900Y173500D02*X371900Y175500D01*
X360700Y149000D02*X361500D01*
Y145500D01*
X361000Y145000D02*X361500Y145500D01*
X360500Y145000D02*X361000D01*
X360000Y145500D02*X360500Y145000D01*
X360000Y146000D02*Y145500D01*
X362700Y147000D02*Y145500D01*
X363200Y145000D01*
X364200D01*
X364700Y145500D01*
Y147000D02*Y145500D01*
X366400Y146500D02*Y145000D01*
Y146500D02*X366900Y147000D01*
X367400D01*
X367900Y146500D01*
Y145000D01*
Y146500D02*X368400Y147000D01*
X368900D01*
X369400Y146500D01*
Y145000D01*
X365900Y147000D02*X366400Y146500D01*
X371100D02*Y143500D01*
X370600Y147000D02*X371100Y146500D01*
X371600Y147000D01*
X372600D01*
X373100Y146500D01*
Y145500D01*
X372600Y145000D02*X373100Y145500D01*
X371600Y145000D02*X372600D01*
X371100Y145500D02*X371600Y145000D01*
X374800D02*X376300D01*
X374300Y145500D02*X374800Y145000D01*
X374300Y146500D02*Y145500D01*
Y146500D02*X374800Y147000D01*
X375800D01*
X376300Y146500D01*
X374300Y146000D02*X376300D01*
Y146500D02*Y146000D01*
X378000Y146500D02*Y145000D01*
Y146500D02*X378500Y147000D01*
X379500D01*
X377500D02*X378000Y146500D01*
X168000Y145000D02*X188000D01*
X168000D02*Y135000D01*
X188000D01*
Y145000D02*Y135000D01*
X178000Y145000D02*Y135000D01*
X188000D01*
X180000Y195000D02*G75*G03X180000Y195000I0J10000D01*G01*
X255000Y175000D02*Y145000D01*
X275000D01*
Y175000D01*
X255000D01*
Y165000D02*X265000D01*
Y175000D01*
X195000Y275000D02*Y135000D01*
X235000D01*
Y275000D02*Y135000D01*
X195000Y275000D02*X210000D01*
X220000D02*X235000D01*
X210000D02*G75*G03X220000Y275000I5000J0D01*G01*
X250000Y195000D02*G75*G03X250000Y195000I0J10000D01*G01*
X245000Y235000D02*X265000D01*
Y245000D02*Y235000D01*
X245000Y245000D02*X265000D01*
X245000D02*Y235000D01*
X255000Y245000D02*Y235000D01*
X245000Y245000D02*X255000D01*
X315000Y315000D02*Y275000D01*
X325000D01*
Y315000D01*
X315000D01*
Y305000D02*X325000D01*
Y315000D01*
X305000D02*Y275000D01*
X315000D01*
Y315000D01*
X305000D01*
Y305000D02*X315000D01*
Y315000D01*
X295000D02*Y275000D01*
X305000D01*
Y315000D01*
X295000D01*
Y305000D02*X305000D01*
Y315000D01*
X285000D02*Y275000D01*
X295000D01*
Y315000D01*
X285000D01*
Y305000D02*X295000D01*
Y315000D01*
X277763Y240180D02*X281763D01*
Y244180D02*Y236180D01*
Y244180D02*X293763D01*
Y236180D01*
X281763D02*X293763D01*
Y240180D02*X297763D01*
X352500Y165000D02*Y169000D01*
X356500D02*X348500D01*
Y181000D01*
X356500D01*
Y169000D01*
X352500Y181000D02*Y185000D01*
X357500Y155000D02*Y135000D01*
X347500Y155000D02*X357500D01*
X347500D02*Y135000D01*
X357500D01*
X347500Y145000D02*X357500D01*
X347500D02*Y135000D01*
X345300Y216000D02*X359800D01*
X344400Y215000D02*X345400Y216000D01*
X360800Y215000D02*X359900Y215900D01*
X344398Y215002D02*G75*G03X360802Y215002I8202J-8202D01*G01*
X333500Y247200D02*Y232700D01*
X332500Y248100D02*X333500Y247100D01*
X332500Y231700D02*X333400Y232600D01*
X332502Y248102D02*G75*G03X332502Y231698I-8202J-8202D01*G01*
X365000Y220000D02*X385000D01*
Y230000D02*Y220000D01*
X365000Y230000D02*X385000D01*
X365000D02*Y220000D01*
X375000Y230000D02*Y220000D01*
X365000Y230000D02*X375000D01*
X335000Y315000D02*Y275000D01*
X345000D01*
Y315000D01*
X335000D01*
Y305000D02*X345000D01*
Y315000D01*
X160000Y455000D02*G75*G03X160000Y455000I0J10000D01*G01*
X180000D02*G75*G03X180000Y455000I0J10000D01*G01*
G54D52*X160000Y445000D02*X180000D01*
Y435000D02*X160000D01*
X180000D02*G75*G03X180000Y445000I0J5000D01*G01*
X160000D02*G75*G03X160000Y435000I0J-5000D01*G01*
G54D50*X125000Y415000D02*X265000D01*
X125000D02*Y375000D01*
X265000D01*
Y415000D02*Y400000D01*
Y390000D02*Y375000D01*
Y400000D02*G75*G03X265000Y390000I0J-5000D01*G01*
X185000Y360000D02*G75*G03X185000Y360000I10000J0D01*G01*
Y430000D02*G75*G03X185000Y430000I10000J0D01*G01*
X235000Y445000D02*X255000D01*
X235000D02*Y435000D01*
X255000D01*
Y445000D02*Y435000D01*
X245000Y445000D02*Y435000D01*
X255000D01*
X260000Y445000D02*Y441000D01*
X256000D02*X264000D01*
Y429000D01*
X256000D02*X264000D01*
X256000Y441000D02*Y429000D01*
X260000D02*Y425000D01*
X40000Y245000D02*Y249000D01*
X44000D02*X36000D01*
Y261000D01*
X44000D01*
Y249000D01*
X40000Y261000D02*Y265000D01*
X331000Y320000D02*X335000D01*
X331000Y324000D02*Y316000D01*
X319000D02*X331000D01*
X319000Y324000D02*Y316000D01*
Y324000D02*X331000D01*
X315000Y320000D02*X319000D01*
X331028Y330083D02*X335028D01*
X331028Y334083D02*Y326083D01*
X319028D02*X331028D01*
X319028Y334083D02*Y326083D01*
Y334083D02*X331028D01*
X315028Y330083D02*X319028D01*
X331000Y340000D02*X335000D01*
X331000Y344000D02*Y336000D01*
X319000D02*X331000D01*
X319000Y344000D02*Y336000D01*
Y344000D02*X331000D01*
X315000Y340000D02*X319000D01*
X325000Y315000D02*Y275000D01*
X335000D01*
Y315000D01*
X325000D01*
Y305000D02*X335000D01*
Y315000D01*
X291000Y320000D02*X295000D01*
X291000Y324000D02*Y316000D01*
X279000D02*X291000D01*
X279000Y324000D02*Y316000D01*
Y324000D02*X291000D01*
X275000Y320000D02*X279000D01*
X251000D02*X255000D01*
X251000Y324000D02*Y316000D01*
X239000D02*X251000D01*
X239000Y324000D02*Y316000D01*
Y324000D02*X251000D01*
X235000Y320000D02*X239000D01*
X291018Y330031D02*X295018D01*
X291018Y334031D02*Y326031D01*
X279018D02*X291018D01*
X279018Y334031D02*Y326031D01*
Y334031D02*X291018D01*
X275018Y330031D02*X279018D01*
X155000Y335000D02*Y305000D01*
X175000D01*
Y335000D01*
X155000D01*
Y325000D02*X165000D01*
Y335000D01*
X95000Y305000D02*Y285000D01*
X85000Y305000D02*X95000D01*
X85000D02*Y285000D01*
X95000D01*
X85000Y295000D02*X95000D01*
X85000D02*Y285000D01*
X81081Y309972D02*X85081D01*
X81081Y313972D02*Y305972D01*
X69081D02*X81081D01*
X69081Y313972D02*Y305972D01*
Y313972D02*X81081D01*
X65081Y309972D02*X69081D01*
X26500Y317300D02*Y302800D01*
X27500Y301900D02*X26500Y302900D01*
X27500Y318300D02*X26600Y317400D01*
X27498Y301898D02*G75*G03X27498Y318302I8202J8202D01*G01*
X180000Y245000D02*Y249000D01*
X184000D02*X176000D01*
Y261000D01*
X184000D01*
Y249000D01*
X180000Y261000D02*Y265000D01*
X55000Y275000D02*Y135000D01*
X95000D01*
Y275000D02*Y135000D01*
X55000Y275000D02*X70000D01*
X80000D02*X95000D01*
X70000D02*G75*G03X80000Y275000I5000J0D01*G01*
X110000Y195000D02*G75*G03X110000Y195000I0J10000D01*G01*
X115000Y175000D02*Y145000D01*
X135000D01*
Y175000D01*
X115000D01*
Y165000D02*X125000D01*
Y175000D01*
X345000Y315000D02*X365000D01*
Y325000D02*Y315000D01*
X345000Y325000D02*X365000D01*
X345000D02*Y315000D01*
X355000Y325000D02*Y315000D01*
X345000Y325000D02*X355000D01*
X345000D02*X365000D01*
Y335000D02*Y325000D01*
X345000Y335000D02*X365000D01*
X345000D02*Y325000D01*
X355000Y335000D02*Y325000D01*
X345000Y335000D02*X355000D01*
X345000D02*X365000D01*
Y345000D02*Y335000D01*
X345000Y345000D02*X365000D01*
X345000D02*Y335000D01*
X355000Y345000D02*Y335000D01*
X345000Y345000D02*X355000D01*
X28000Y145000D02*X48000D01*
X28000D02*Y135000D01*
X48000D01*
Y145000D02*Y135000D01*
X38000Y145000D02*Y135000D01*
X48000D01*
X40000Y195000D02*G75*G03X40000Y195000I0J10000D01*G01*
X35000Y425000D02*Y335000D01*
X45000D01*
Y425000D02*Y335000D01*
X35000Y425000D02*X45000D01*
X35000Y415000D02*X45000D01*
Y425000D02*Y415000D01*
X50000Y409000D02*Y405000D01*
X46000Y409000D02*X54000D01*
X46000Y421000D02*Y409000D01*
Y421000D02*X54000D01*
Y409000D01*
X50000Y425000D02*Y421000D01*
X110980Y470048D02*X114980D01*
X110980Y474048D02*Y466048D01*
X98980D02*X110980D01*
X98980Y474048D02*Y466048D01*
Y474048D02*X110980D01*
X94980Y470048D02*X98980D01*
X56500Y477300D02*Y462800D01*
X57500Y461900D02*X56500Y462900D01*
X57500Y478300D02*X56600Y477400D01*
X57498Y461898D02*G75*G03X57498Y478302I8202J8202D01*G01*
X135000Y475000D02*Y455000D01*
X125000Y475000D02*X135000D01*
X125000D02*Y455000D01*
X135000D01*
X125000Y465000D02*X135000D01*
X125000D02*Y455000D01*
X35000Y475000D02*Y445000D01*
X45000D01*
Y475000D01*
X35000D01*
Y465000D02*X45000D01*
Y475000D01*
M02*
