G04 start of page 3 for group 1 idx 1 *
G04 Title: (unknown), bottom *
G04 Creator: pcb 20140316 *
G04 CreationDate: Thu 03 Aug 2017 07:13:35 PM GMT UTC *
G04 For: root *
G04 Format: Gerber/RS-274X *
G04 PCB-Dimensions (mil): 6000.00 5000.00 *
G04 PCB-Coordinate-Origin: lower left *
%MOIN*%
%FSLAX25Y25*%
%LNBOTTOM*%
%ADD34C,0.0300*%
%ADD33C,0.0280*%
%ADD32C,0.0380*%
%ADD31C,0.0350*%
%ADD30C,0.0130*%
%ADD29C,0.0260*%
%ADD28C,0.0700*%
%ADD27C,0.0600*%
%ADD26C,0.0001*%
%ADD25C,0.0400*%
%ADD24C,0.0250*%
%ADD23C,0.0100*%
G54D23*X0Y500000D02*X390000D01*
Y110000D02*X0D01*
Y500000D01*
X390000Y110000D02*Y500000D01*
G54D24*X20000Y200000D02*X10000Y210000D01*
X20000Y200000D02*X60000D01*
X30000Y310000D02*X20000D01*
X10000Y300000D01*
G54D25*Y480000D02*Y130000D01*
G54D24*X160000Y200000D02*X150000Y210000D01*
X140000D02*X150000Y220000D01*
X140000Y210000D02*X90000D01*
G54D23*Y260000D02*X110000D01*
X130000Y280000D01*
G54D24*X160000Y470000D02*Y480000D01*
X130000Y470000D02*X120028D01*
X119980Y470048D01*
X89980D02*X70048D01*
X70000Y470000D01*
G54D23*X126000Y404000D02*X123000D01*
G54D24*X130000Y410000D02*Y460000D01*
G54D23*X160000Y330000D02*Y380000D01*
Y310000D02*Y304000D01*
X162000Y302000D01*
G54D24*X170000Y310000D02*X177000D01*
G54D23*X115000Y150000D02*X100000D01*
X95000Y145000D01*
X77000D01*
X75000Y147000D01*
Y255000D01*
X40000Y270000D02*Y269000D01*
X50000Y430000D02*X45000Y435000D01*
X60000Y390000D02*X40000D01*
X64000Y380000D02*X40000D01*
G54D25*Y410000D02*X20000D01*
X10000Y420000D01*
G54D23*X45000Y435000D02*X13000D01*
X10000Y432000D01*
X75000Y255000D02*X60000Y270000D01*
X120000Y160000D02*X114000D01*
X105000Y169000D01*
X120000Y150000D02*X114000D01*
X33000Y140000D02*Y123000D01*
X30000Y120000D01*
G54D25*X10000Y130000D02*X20000Y120000D01*
X33000D01*
G54D23*X90000Y180000D02*X96000D01*
X105000Y169000D02*Y171000D01*
X96000Y180000D01*
G54D24*X150000Y130000D02*X160000Y120000D01*
G54D23*X43000Y140000D02*X60000D01*
X241000Y150000D02*X236000Y145000D01*
X219000D01*
X215000Y149000D01*
G54D25*X370000Y120000D02*X30000D01*
G54D24*X130000Y150000D02*X140000D01*
X150000Y160000D01*
X160000Y200000D02*X200000D01*
X150000Y130000D02*Y220000D01*
G54D23*X183000Y140000D02*X200000D01*
X173000D02*Y123000D01*
X170000Y120000D01*
X260000Y160000D02*X254000D01*
X245000Y169000D02*X254000Y160000D01*
X241000Y150000D02*X260000D01*
X230000Y180000D02*X236000D01*
X245000Y171000D01*
Y169000D01*
G54D24*X280000Y210000D02*X230000D01*
X270000Y150000D02*X280000D01*
X290000Y130000D02*X300000Y120000D01*
G54D25*X370000D02*X380000Y130000D01*
G54D24*X280000Y150000D02*X290000Y160000D01*
X280000Y210000D02*X290000Y220000D01*
Y130000D02*Y220000D01*
X352500Y212500D02*X372500D01*
X380000Y205000D01*
G54D23*X180000Y270000D02*X178000D01*
X230000Y260000D02*X250000D01*
X270000Y280000D01*
X245000Y290000D02*X235000Y280000D01*
X130000D02*X340000D01*
G54D24*X360000Y320000D02*X370000D01*
X380000Y310000D01*
X370000Y330000D02*X380000Y320000D01*
G54D25*Y130000D02*Y480000D01*
G54D24*X370000Y240000D02*X380000Y230000D01*
X360000Y330000D02*X370000D01*
X360000Y340000D02*X370000D01*
X380000Y330000D01*
G54D25*X348000Y300000D02*X380000Y268000D01*
G54D24*X330000Y240000D02*X370000D01*
G54D23*X157000Y370000D02*X160000Y373000D01*
Y380000D01*
G54D24*X190000Y410000D02*Y480000D01*
G54D23*X209000Y404000D02*X198000D01*
X250000Y380000D02*Y379000D01*
X260000Y380000D02*Y379000D01*
X255000Y374000D01*
X340028Y330083D02*X349917D01*
X350000Y330000D01*
X340000Y320000D02*X350000D01*
G54D25*X348000Y300000D02*X285000D01*
X279000Y306000D01*
Y328000D01*
G54D23*X300031Y330031D02*X299969D01*
X293000Y337000D01*
X270000D01*
X267000Y340000D02*Y387000D01*
G54D24*X350000Y340000D02*X340000D01*
G54D25*X279000Y328000D02*X277000Y330000D01*
X270049D01*
G54D23*X250000Y379000D02*X245000Y374000D01*
X250000Y410000D02*Y440000D01*
X309976Y330031D02*X310028Y330083D01*
X300018Y330031D02*X309976D01*
X300000Y320000D02*X310000D01*
G54D24*X270049Y330000D02*X270018Y330031D01*
G54D23*X260000Y320000D02*X270000D01*
X255000Y374000D02*Y328000D01*
X251000Y324000D01*
X245000Y374000D02*Y296000D01*
Y290000D02*Y298000D01*
X251000Y324000D02*Y290000D01*
X260000Y365000D02*Y320000D01*
X270000Y337000D02*X267000Y340000D01*
X260000Y410000D02*X251000Y401000D01*
X240000D01*
X220000Y403000D02*X217000Y400000D01*
X220000Y410000D02*Y403000D01*
X210000Y410000D02*Y405000D01*
X209000Y404000D01*
G54D24*X200000Y360000D02*Y380000D01*
X180000Y340000D02*X200000Y360000D01*
X177000Y310000D02*X180000Y313000D01*
G54D23*X162000Y302000D02*X181000D01*
X186000Y307000D01*
G54D24*X180000Y313000D02*Y340000D01*
G54D23*X186000Y307000D02*Y322000D01*
X219000Y326000D02*X190000D01*
X186000Y322000D01*
X215000Y255000D02*X200000Y270000D01*
X230000Y410000D02*Y401000D01*
X223000Y394000D01*
X240000Y401000D02*X225000Y386000D01*
Y332000D01*
X219000Y326000D01*
X215000Y149000D02*Y255000D01*
G54D25*X370000Y490000D02*X380000Y480000D01*
G54D23*X217000Y400000D02*X70000D01*
X60000Y390000D01*
X167000Y387000D02*X71000D01*
X125000Y390000D02*X71000D01*
X200000Y404000D02*X125000D01*
X71000Y387000D02*X64000Y380000D01*
X71000Y365000D02*X66000Y360000D01*
X40000Y370000D02*X157000D01*
X145000Y365000D02*X71000D01*
X66000Y360000D02*X40000D01*
X170000Y380000D02*Y384000D01*
X167000Y387000D01*
X223000Y394000D02*X99000D01*
G54D25*X20000Y490000D02*X10000Y480000D01*
G54D24*X60000Y470000D02*X40000Y490000D01*
Y470000D02*X20000Y490000D01*
G54D25*X370000D01*
G54D24*X160000Y480000D02*X150000Y490000D01*
X180000Y470000D02*Y480000D01*
X170000Y490000D01*
X190000Y480000D02*X200000Y490000D01*
G54D26*G36*
X37000Y423000D02*Y417000D01*
X43000D01*
Y423000D01*
X37000D01*
G37*
G54D27*X40000Y410000D03*
Y400000D03*
Y390000D03*
G54D26*G36*
X37000Y473000D02*Y467000D01*
X43000D01*
Y473000D01*
X37000D01*
G37*
G54D27*X40000Y460000D03*
Y450000D03*
X20000D03*
X10000D03*
X40000Y350000D03*
Y340000D03*
G54D26*G36*
X36500Y313500D02*Y306500D01*
X43500D01*
Y313500D01*
X36500D01*
G37*
G54D28*X30000Y310000D03*
G54D27*X20000Y280000D03*
Y250000D03*
Y240000D03*
X10000Y280000D03*
Y250000D03*
Y240000D03*
Y290000D03*
X20000D03*
X50000Y400000D03*
Y430000D03*
G54D26*G36*
X127000Y463000D02*Y457000D01*
X133000D01*
Y463000D01*
X127000D01*
G37*
G54D27*X130000Y470000D03*
X119980Y470048D03*
X89980D03*
G54D26*G36*
X66500Y473500D02*Y466500D01*
X73500D01*
Y473500D01*
X66500D01*
G37*
G54D28*X60000Y470000D03*
G54D27*X130000Y490000D03*
Y480000D03*
X120000D03*
Y490000D03*
X140000Y480000D03*
Y490000D03*
X110000D03*
Y480000D03*
X100000D03*
Y490000D03*
X90000D03*
Y480000D03*
X40000Y380000D03*
Y370000D03*
Y360000D03*
X20000Y350000D03*
Y360000D03*
Y370000D03*
Y340000D03*
X10000Y350000D03*
Y340000D03*
Y360000D03*
Y370000D03*
Y380000D03*
Y390000D03*
Y400000D03*
X20000Y380000D03*
Y390000D03*
Y400000D03*
G54D26*G36*
X257000Y173000D02*Y167000D01*
X263000D01*
Y173000D01*
X257000D01*
G37*
G54D27*X230000Y170000D03*
X270000D03*
X260000Y160000D03*
Y150000D03*
X230000D03*
Y160000D03*
G54D26*G36*
X247000Y203000D02*Y197000D01*
X253000D01*
Y203000D01*
X247000D01*
G37*
G54D27*X250000Y210000D03*
G54D26*G36*
X247000Y243000D02*Y237000D01*
X253000D01*
Y243000D01*
X247000D01*
G37*
G54D27*X260000Y240000D03*
X272763Y240180D03*
X200000Y170000D03*
X352500Y160000D03*
Y150000D03*
G54D26*G36*
X317000Y313000D02*Y307000D01*
X323000D01*
Y313000D01*
X317000D01*
G37*
G36*
X307000D02*Y307000D01*
X313000D01*
Y313000D01*
X307000D01*
G37*
G36*
X337000D02*Y307000D01*
X343000D01*
Y313000D01*
X337000D01*
G37*
G54D27*X310000Y290000D03*
Y280000D03*
G54D26*G36*
X297000Y313000D02*Y307000D01*
X303000D01*
Y313000D01*
X297000D01*
G37*
G54D27*X300000Y300000D03*
G54D26*G36*
X287000Y313000D02*Y307000D01*
X293000D01*
Y313000D01*
X287000D01*
G37*
G54D27*X290000Y300000D03*
X320000D03*
X310000D03*
X330000D03*
X340000D03*
Y290000D03*
Y280000D03*
X300000Y290000D03*
Y280000D03*
X290000Y290000D03*
Y280000D03*
G54D26*G36*
X327000Y313000D02*Y307000D01*
X333000D01*
Y313000D01*
X327000D01*
G37*
G54D27*X330000Y290000D03*
Y280000D03*
X230000Y220000D03*
Y230000D03*
Y240000D03*
Y250000D03*
Y260000D03*
Y270000D03*
Y180000D03*
Y190000D03*
Y200000D03*
Y210000D03*
X320000Y290000D03*
Y280000D03*
X370000Y290000D03*
X380000D03*
X302763Y240180D03*
G54D26*G36*
X316500Y243500D02*Y236500D01*
X323500D01*
Y243500D01*
X316500D01*
G37*
G54D28*X330000Y240000D03*
G54D27*X370000Y250000D03*
X380000D03*
X352500Y190000D03*
G54D26*G36*
X349000Y206000D02*Y199000D01*
X356000D01*
Y206000D01*
X349000D01*
G37*
G54D28*X352500Y212500D03*
G54D26*G36*
X367000Y228000D02*Y222000D01*
X373000D01*
Y228000D01*
X367000D01*
G37*
G54D27*X380000Y225000D03*
X260000Y420000D03*
G54D26*G36*
X257000Y413000D02*Y407000D01*
X263000D01*
Y413000D01*
X257000D01*
G37*
G54D27*X250000Y410000D03*
X240000D03*
X230000D03*
X220000D03*
X210000D03*
X200000D03*
X190000D03*
X180000D03*
X170000D03*
X160000D03*
Y380000D03*
X170000D03*
X180000D03*
X190000D03*
X200000D03*
X210000D03*
X220000D03*
X230000D03*
X150000Y410000D03*
X140000D03*
X130000D03*
X140000Y380000D03*
X150000D03*
X250000D03*
X130000D03*
G54D26*G36*
X347000Y323000D02*Y317000D01*
X353000D01*
Y323000D01*
X347000D01*
G37*
G54D27*X360000Y320000D03*
X340000D03*
X310000D03*
X300000D03*
X270000D03*
G54D26*G36*
X347000Y333000D02*Y327000D01*
X353000D01*
Y333000D01*
X347000D01*
G37*
G36*
Y343000D02*Y337000D01*
X353000D01*
Y343000D01*
X347000D01*
G37*
G54D27*X360000Y330000D03*
Y340000D03*
X370000Y350000D03*
X380000D03*
X340028Y330083D03*
X340000Y340000D03*
X310028Y330083D03*
X310000Y340000D03*
X300018Y330031D03*
X270018D03*
X370000Y400000D03*
X380000D03*
Y410000D03*
X370000D03*
Y390000D03*
X380000D03*
X370000Y380000D03*
Y370000D03*
Y360000D03*
X380000D03*
Y370000D03*
Y380000D03*
X370000Y420000D03*
X380000D03*
Y430000D03*
X370000D03*
Y440000D03*
Y450000D03*
Y460000D03*
X380000Y440000D03*
Y450000D03*
Y460000D03*
X350000Y480000D03*
Y490000D03*
X340000D03*
Y480000D03*
X330000Y490000D03*
X320000D03*
X310000D03*
X330000Y480000D03*
X320000D03*
X310000D03*
X300000D03*
X290000D03*
X280000D03*
X300000Y490000D03*
X290000D03*
X280000D03*
X270000Y480000D03*
X260000D03*
X250000D03*
X240000D03*
X230000D03*
X220000D03*
X270000Y490000D03*
X260000D03*
X250000D03*
X240000D03*
X230000D03*
X220000D03*
G54D26*G36*
X157000Y443000D02*Y437000D01*
X163000D01*
Y443000D01*
X157000D01*
G37*
G54D27*X180000Y440000D03*
G54D26*G36*
X157000Y463000D02*Y457000D01*
X163000D01*
Y463000D01*
X157000D01*
G37*
G36*
X177000D02*Y457000D01*
X183000D01*
Y463000D01*
X177000D01*
G37*
G54D27*X160000Y470000D03*
X180000D03*
G54D26*G36*
X187000Y433000D02*Y427000D01*
X193000D01*
Y433000D01*
X187000D01*
G37*
G54D27*X200000Y430000D03*
G54D26*G36*
X187000Y363000D02*Y357000D01*
X193000D01*
Y363000D01*
X187000D01*
G37*
G54D27*X200000Y360000D03*
X260000Y320000D03*
X230000D03*
G54D26*G36*
X157000Y333000D02*Y327000D01*
X163000D01*
Y333000D01*
X157000D01*
G37*
G54D27*X170000Y330000D03*
X160000Y320000D03*
X170000D03*
X160000Y310000D03*
X170000D03*
X90081Y309972D03*
X60081D03*
X240000Y380000D03*
X260000D03*
Y450000D03*
G54D26*G36*
X247000Y443000D02*Y437000D01*
X253000D01*
Y443000D01*
X247000D01*
G37*
G54D27*X240000Y440000D03*
G54D26*G36*
X40000Y143000D02*Y137000D01*
X46000D01*
Y143000D01*
X40000D01*
G37*
G54D27*X60000Y210000D03*
Y200000D03*
Y190000D03*
Y180000D03*
Y170000D03*
Y160000D03*
Y150000D03*
Y140000D03*
Y130000D03*
Y120000D03*
X70000Y130000D03*
Y120000D03*
X33000Y140000D03*
X60000Y220000D03*
G54D26*G36*
X37000Y203000D02*Y197000D01*
X43000D01*
Y203000D01*
X37000D01*
G37*
G54D27*X40000Y210000D03*
X20000Y190000D03*
Y180000D03*
Y170000D03*
Y160000D03*
Y150000D03*
X10000Y190000D03*
Y180000D03*
Y170000D03*
Y160000D03*
Y150000D03*
X90000D03*
Y160000D03*
Y170000D03*
Y180000D03*
Y190000D03*
Y200000D03*
Y210000D03*
G54D26*G36*
X107000Y203000D02*Y197000D01*
X113000D01*
Y203000D01*
X107000D01*
G37*
G54D27*X110000Y210000D03*
X90000Y220000D03*
Y230000D03*
Y240000D03*
Y250000D03*
Y260000D03*
Y270000D03*
G54D26*G36*
X87000Y293000D02*Y287000D01*
X93000D01*
Y293000D01*
X87000D01*
G37*
G54D27*X90000Y300000D03*
G54D26*G36*
X57000Y273000D02*Y267000D01*
X63000D01*
Y273000D01*
X57000D01*
G37*
G54D27*X60000Y260000D03*
Y250000D03*
Y240000D03*
Y230000D03*
X40000Y240000D03*
Y270000D03*
G54D26*G36*
X117000Y173000D02*Y167000D01*
X123000D01*
Y173000D01*
X117000D01*
G37*
G54D27*X120000Y160000D03*
Y150000D03*
X130000Y170000D03*
Y160000D03*
Y150000D03*
Y130000D03*
Y120000D03*
X90000Y140000D03*
Y120000D03*
X120000Y130000D03*
Y120000D03*
X110000D03*
Y130000D03*
X100000Y120000D03*
X80000Y130000D03*
Y120000D03*
X90000Y130000D03*
X100000D03*
G54D26*G36*
X180000Y143000D02*Y137000D01*
X186000D01*
Y143000D01*
X180000D01*
G37*
G54D27*X200000Y160000D03*
Y150000D03*
Y140000D03*
X173000D03*
X230000D03*
X200000Y130000D03*
X210000D03*
X220000D03*
X230000D03*
X180000Y240000D03*
G54D26*G36*
X177000Y203000D02*Y197000D01*
X183000D01*
Y203000D01*
X177000D01*
G37*
G54D27*X180000Y210000D03*
Y270000D03*
G54D26*G36*
X197000Y273000D02*Y267000D01*
X203000D01*
Y273000D01*
X197000D01*
G37*
G54D27*X200000Y250000D03*
Y240000D03*
Y230000D03*
Y220000D03*
Y210000D03*
Y200000D03*
Y190000D03*
Y180000D03*
Y260000D03*
X270000Y160000D03*
Y150000D03*
G54D26*G36*
X349500Y143000D02*Y137000D01*
X355500D01*
Y143000D01*
X349500D01*
G37*
G54D27*X270000Y130000D03*
X280000D03*
X320000D03*
X330000D03*
X270000Y120000D03*
X280000D03*
X320000D03*
X330000D03*
X260000Y130000D03*
X250000D03*
X240000D03*
X260000Y120000D03*
X250000D03*
X240000D03*
X230000D03*
X220000D03*
X210000D03*
X200000D03*
G54D29*X251000Y290000D03*
G54D27*X279000Y306000D03*
G54D29*X260000Y365000D03*
X267000Y387000D03*
X125000Y390000D03*
X71000D03*
X145000Y365000D03*
X99000Y394000D03*
X123000Y404000D03*
G54D30*G54D31*G54D30*G54D32*G54D25*G54D32*G54D33*G54D25*G54D33*G54D32*G54D33*G54D25*G54D32*G54D25*G54D32*G54D33*G54D32*G54D33*G54D34*G54D32*G54D33*G54D32*G54D33*G54D32*G54D25*G54D33*G54D25*G54D33*G54D32*G54D33*G54D32*G54D33*G54D32*G54D25*G54D33*G54D25*G54D33*G54D34*G54D33*G54D32*G54D33*G54D32*G54D33*G54D25*G54D32*G54D33*G54D34*G54D25*G54D33*G54D34*G54D33*G54D32*G54D33*G54D32*G54D25*G54D33*G54D25*G54D32*G54D33*G54D32*G54D33*G54D25*G54D33*G54D34*G54D33*G54D32*G54D25*M02*
