G04 start of page 2 for group 0 idx 0 *
G04 Title: (unknown), top *
G04 Creator: pcb 20140316 *
G04 CreationDate: Thu 03 Aug 2017 07:13:35 PM GMT UTC *
G04 For: root *
G04 Format: Gerber/RS-274X *
G04 PCB-Dimensions (mil): 6000.00 5000.00 *
G04 PCB-Coordinate-Origin: lower left *
%MOIN*%
%FSLAX25Y25*%
%LNTOP*%
%ADD22C,0.0300*%
%ADD21C,0.0280*%
%ADD20C,0.0380*%
%ADD19C,0.0350*%
%ADD18C,0.0130*%
%ADD17C,0.0260*%
%ADD16C,0.0700*%
%ADD15C,0.0600*%
%ADD14C,0.0001*%
%ADD13C,0.0250*%
%ADD12C,0.0400*%
%ADD11C,0.0100*%
G54D11*X0Y500000D02*X390000D01*
Y110000D02*X0D01*
Y500000D01*
X390000Y110000D02*Y500000D01*
G54D12*X40000Y420000D02*X30000D01*
G54D13*X40000Y460000D02*X30000D01*
G54D11*X60000Y450000D02*X40000D01*
G54D12*X30000Y420000D02*X20000Y430000D01*
G54D13*X30000Y460000D02*X20000Y470000D01*
G54D11*X40000Y400000D02*X61000D01*
X71000Y390000D02*X61000Y400000D01*
X99000Y394000D02*X82000Y377000D01*
X95000Y397000D02*X75000Y377000D01*
X66000Y350000D02*X75000Y359000D01*
X76000Y340000D02*X82000Y346000D01*
Y377000D01*
G54D12*X30000Y480000D02*X20000Y470000D01*
G54D11*X80000Y430000D02*X60000Y450000D01*
G54D13*X180000Y370000D02*Y380000D01*
G54D11*X150000D02*Y370000D01*
G54D13*X220000Y350000D02*X210000Y360000D01*
Y380000D01*
G54D11*X220000Y362000D02*Y380000D01*
G54D13*X200000Y360000D02*Y351000D01*
X210000Y341000D01*
X216000Y335000D02*X208500Y342500D01*
X191000Y381000D02*Y388000D01*
X200000Y397000D01*
X170000Y340000D02*X190000Y360000D01*
G54D11*X123000Y404000D02*X116000Y397000D01*
X95000D01*
X160000Y320000D02*X155000D01*
X153000Y322000D01*
Y353000D01*
X170000Y320000D02*X165000Y315000D01*
X151000D01*
X145000Y321000D01*
Y365000D01*
G54D13*X170000Y330000D02*Y340000D01*
G54D11*X150000Y370000D02*X145000Y365000D01*
X140000Y380000D02*Y386000D01*
X136000Y390000D01*
X125000D01*
G54D13*X200000Y470000D02*Y397000D01*
X191000Y388000D02*X188000D01*
X180000Y380000D01*
G54D11*X170000D02*Y375000D01*
X165000Y370000D01*
Y365000D01*
X153000Y353000D01*
X140000Y410000D02*Y422000D01*
X132000Y430000D01*
X80000D01*
X40000Y350000D02*X66000D01*
X75000Y359000D02*Y377000D01*
X40000Y340000D02*X76000D01*
G54D13*X90000Y309891D02*X90081Y309972D01*
G54D12*X20000Y470000D02*Y140000D01*
G54D13*X60000Y260000D02*X69000D01*
X75000Y266000D01*
Y275000D01*
X90000Y290000D02*X75000Y275000D01*
X90000Y300000D02*Y309891D01*
X60081Y309972D02*X40028D01*
X40000Y310000D01*
G54D11*X180000Y240000D02*Y210000D01*
G54D13*X200000D02*X170000D01*
X160000Y220000D01*
G54D11*X200000Y270000D02*X170000D01*
X160000Y260000D01*
G54D13*Y140000D02*Y260000D01*
X240000Y190000D02*X230000D01*
G54D11*Y270000D02*X240000D01*
G54D13*X260000Y240000D02*X272582D01*
X250000D02*X230000D01*
X272582D02*X272763Y240180D01*
X302763D02*X319820D01*
X320000Y240000D01*
G54D11*X120000Y290000D02*X340000D01*
X120000Y170000D02*X90000D01*
X130000Y160000D02*X125000Y155000D01*
X105000D01*
X100000Y160000D01*
X90000D01*
G54D13*X100000Y190000D02*X90000D01*
X110000Y200000D02*X100000Y190000D01*
G54D11*X40000Y240000D02*Y210000D01*
X90000Y270000D02*X100000D01*
X120000Y290000D01*
G54D13*X130000Y170000D02*X150000D01*
X160000Y180000D01*
Y140000D02*X170000Y130000D01*
X60000Y210000D02*X30000D01*
G54D11*X60000Y270000D02*X30000D01*
X20000Y260000D01*
G54D13*X30000Y210000D02*X20000Y220000D01*
G54D12*X30000Y130000D02*X20000Y140000D01*
G54D13*X110000Y200000D02*X150000D01*
X160000Y190000D01*
X250000Y200000D02*X240000Y190000D01*
X250000Y200000D02*X290000D01*
X300000Y190000D01*
G54D11*X260000Y170000D02*X230000D01*
X270000Y160000D02*X265000Y155000D01*
X251000D01*
X230000Y160000D02*X240000D01*
X245000Y155000D01*
X254000D01*
G54D13*X270000Y170000D02*X290000D01*
X300000Y180000D01*
Y140000D02*X310000Y130000D01*
X300000Y140000D02*Y190000D01*
G54D12*X360000Y130000D02*X370000Y140000D01*
G54D13*X352500D02*X361250Y131250D01*
X352500Y150000D02*Y160000D01*
Y190000D02*Y202500D01*
G54D12*X30000Y130000D02*X360000D01*
G54D13*X310000Y340000D02*X300000Y350000D01*
G54D11*X340000Y340000D02*X324000Y356000D01*
G54D12*X370000Y470000D02*Y140000D01*
X290000Y310000D02*X360000D01*
X370000Y300000D01*
G54D11*X160000Y440000D02*X170000Y430000D01*
Y410000D01*
X160000Y440000D02*Y460000D01*
X180000Y410000D02*Y460000D01*
G54D12*X360000Y480000D02*X370000Y470000D01*
G54D11*X260000Y450000D02*Y474000D01*
X254000Y480000D01*
G54D13*X200000Y470000D02*X210000Y480000D01*
G54D12*X30000D02*X360000D01*
G54D11*X240000Y410000D02*Y440000D01*
G54D13*X190000Y360000D02*X180000Y370000D01*
X190000Y380000D02*X180000Y370000D01*
G54D11*X260000Y420000D02*Y410000D01*
X240000Y380000D02*Y370000D01*
X245000Y365000D01*
X260000D01*
X233000Y387000D02*X267000D01*
G54D13*X300000Y350000D02*X220000D01*
G54D11*X324000Y356000D02*X226000D01*
X220000Y362000D01*
G54D13*X230000Y320000D02*Y317000D01*
X241000Y306000D01*
G54D11*X230000Y380000D02*Y384000D01*
X233000Y387000D01*
X251000Y290000D02*Y280000D01*
X241000Y270000D01*
X238000D01*
G54D13*X241000Y306000D02*X279000D01*
X270018Y330031D02*Y330982D01*
X266000Y335000D01*
X216000D01*
G54D14*G36*
X37000Y423000D02*Y417000D01*
X43000D01*
Y423000D01*
X37000D01*
G37*
G54D15*X40000Y410000D03*
Y400000D03*
Y390000D03*
G54D14*G36*
X37000Y473000D02*Y467000D01*
X43000D01*
Y473000D01*
X37000D01*
G37*
G54D15*X40000Y460000D03*
Y450000D03*
X20000D03*
X10000D03*
X40000Y350000D03*
Y340000D03*
G54D14*G36*
X36500Y313500D02*Y306500D01*
X43500D01*
Y313500D01*
X36500D01*
G37*
G54D16*X30000Y310000D03*
G54D15*X20000Y280000D03*
Y250000D03*
Y240000D03*
X10000Y280000D03*
Y250000D03*
Y240000D03*
Y290000D03*
X20000D03*
X50000Y400000D03*
Y430000D03*
G54D14*G36*
X127000Y463000D02*Y457000D01*
X133000D01*
Y463000D01*
X127000D01*
G37*
G54D15*X130000Y470000D03*
X119980Y470048D03*
X89980D03*
G54D14*G36*
X66500Y473500D02*Y466500D01*
X73500D01*
Y473500D01*
X66500D01*
G37*
G54D16*X60000Y470000D03*
G54D15*X130000Y490000D03*
Y480000D03*
X120000D03*
Y490000D03*
X140000Y480000D03*
Y490000D03*
X110000D03*
Y480000D03*
X100000D03*
Y490000D03*
X90000D03*
Y480000D03*
X40000Y380000D03*
Y370000D03*
Y360000D03*
X20000Y350000D03*
Y360000D03*
Y370000D03*
Y340000D03*
X10000Y350000D03*
Y340000D03*
Y360000D03*
Y370000D03*
Y380000D03*
Y390000D03*
Y400000D03*
X20000Y380000D03*
Y390000D03*
Y400000D03*
G54D14*G36*
X257000Y173000D02*Y167000D01*
X263000D01*
Y173000D01*
X257000D01*
G37*
G54D15*X230000Y170000D03*
X270000D03*
X260000Y160000D03*
Y150000D03*
X230000D03*
Y160000D03*
G54D14*G36*
X247000Y203000D02*Y197000D01*
X253000D01*
Y203000D01*
X247000D01*
G37*
G54D15*X250000Y210000D03*
G54D14*G36*
X247000Y243000D02*Y237000D01*
X253000D01*
Y243000D01*
X247000D01*
G37*
G54D15*X260000Y240000D03*
X272763Y240180D03*
X200000Y170000D03*
X352500Y160000D03*
Y150000D03*
G54D14*G36*
X317000Y313000D02*Y307000D01*
X323000D01*
Y313000D01*
X317000D01*
G37*
G36*
X307000D02*Y307000D01*
X313000D01*
Y313000D01*
X307000D01*
G37*
G36*
X337000D02*Y307000D01*
X343000D01*
Y313000D01*
X337000D01*
G37*
G54D15*X310000Y290000D03*
Y280000D03*
G54D14*G36*
X297000Y313000D02*Y307000D01*
X303000D01*
Y313000D01*
X297000D01*
G37*
G54D15*X300000Y300000D03*
G54D14*G36*
X287000Y313000D02*Y307000D01*
X293000D01*
Y313000D01*
X287000D01*
G37*
G54D15*X290000Y300000D03*
X320000D03*
X310000D03*
X330000D03*
X340000D03*
Y290000D03*
Y280000D03*
X300000Y290000D03*
Y280000D03*
X290000Y290000D03*
Y280000D03*
G54D14*G36*
X327000Y313000D02*Y307000D01*
X333000D01*
Y313000D01*
X327000D01*
G37*
G54D15*X330000Y290000D03*
Y280000D03*
X230000Y220000D03*
Y230000D03*
Y240000D03*
Y250000D03*
Y260000D03*
Y270000D03*
Y180000D03*
Y190000D03*
Y200000D03*
Y210000D03*
X320000Y290000D03*
Y280000D03*
X370000Y290000D03*
X380000D03*
X302763Y240180D03*
G54D14*G36*
X316500Y243500D02*Y236500D01*
X323500D01*
Y243500D01*
X316500D01*
G37*
G54D16*X330000Y240000D03*
G54D15*X370000Y250000D03*
X380000D03*
X352500Y190000D03*
G54D14*G36*
X349000Y206000D02*Y199000D01*
X356000D01*
Y206000D01*
X349000D01*
G37*
G54D16*X352500Y212500D03*
G54D14*G36*
X367000Y228000D02*Y222000D01*
X373000D01*
Y228000D01*
X367000D01*
G37*
G54D15*X380000Y225000D03*
X260000Y420000D03*
G54D14*G36*
X257000Y413000D02*Y407000D01*
X263000D01*
Y413000D01*
X257000D01*
G37*
G54D15*X250000Y410000D03*
X240000D03*
X230000D03*
X220000D03*
X210000D03*
X200000D03*
X190000D03*
X180000D03*
X170000D03*
X160000D03*
Y380000D03*
X170000D03*
X180000D03*
X190000D03*
X200000D03*
X210000D03*
X220000D03*
X230000D03*
X150000Y410000D03*
X140000D03*
X130000D03*
X140000Y380000D03*
X150000D03*
X250000D03*
X130000D03*
G54D14*G36*
X347000Y323000D02*Y317000D01*
X353000D01*
Y323000D01*
X347000D01*
G37*
G54D15*X360000Y320000D03*
X340000D03*
X310000D03*
X300000D03*
X270000D03*
G54D14*G36*
X347000Y333000D02*Y327000D01*
X353000D01*
Y333000D01*
X347000D01*
G37*
G36*
Y343000D02*Y337000D01*
X353000D01*
Y343000D01*
X347000D01*
G37*
G54D15*X360000Y330000D03*
Y340000D03*
X370000Y350000D03*
X380000D03*
X340028Y330083D03*
X340000Y340000D03*
X310028Y330083D03*
X310000Y340000D03*
X300018Y330031D03*
X270018D03*
X370000Y400000D03*
X380000D03*
Y410000D03*
X370000D03*
Y390000D03*
X380000D03*
X370000Y380000D03*
Y370000D03*
Y360000D03*
X380000D03*
Y370000D03*
Y380000D03*
X370000Y420000D03*
X380000D03*
Y430000D03*
X370000D03*
Y440000D03*
Y450000D03*
Y460000D03*
X380000Y440000D03*
Y450000D03*
Y460000D03*
X350000Y480000D03*
Y490000D03*
X340000D03*
Y480000D03*
X330000Y490000D03*
X320000D03*
X310000D03*
X330000Y480000D03*
X320000D03*
X310000D03*
X300000D03*
X290000D03*
X280000D03*
X300000Y490000D03*
X290000D03*
X280000D03*
X270000Y480000D03*
X260000D03*
X250000D03*
X240000D03*
X230000D03*
X220000D03*
X270000Y490000D03*
X260000D03*
X250000D03*
X240000D03*
X230000D03*
X220000D03*
G54D14*G36*
X157000Y443000D02*Y437000D01*
X163000D01*
Y443000D01*
X157000D01*
G37*
G54D15*X180000Y440000D03*
G54D14*G36*
X157000Y463000D02*Y457000D01*
X163000D01*
Y463000D01*
X157000D01*
G37*
G36*
X177000D02*Y457000D01*
X183000D01*
Y463000D01*
X177000D01*
G37*
G54D15*X160000Y470000D03*
X180000D03*
G54D14*G36*
X187000Y433000D02*Y427000D01*
X193000D01*
Y433000D01*
X187000D01*
G37*
G54D15*X200000Y430000D03*
G54D14*G36*
X187000Y363000D02*Y357000D01*
X193000D01*
Y363000D01*
X187000D01*
G37*
G54D15*X200000Y360000D03*
X260000Y320000D03*
X230000D03*
G54D14*G36*
X157000Y333000D02*Y327000D01*
X163000D01*
Y333000D01*
X157000D01*
G37*
G54D15*X170000Y330000D03*
X160000Y320000D03*
X170000D03*
X160000Y310000D03*
X170000D03*
X90081Y309972D03*
X60081D03*
X240000Y380000D03*
X260000D03*
Y450000D03*
G54D14*G36*
X247000Y443000D02*Y437000D01*
X253000D01*
Y443000D01*
X247000D01*
G37*
G54D15*X240000Y440000D03*
G54D14*G36*
X40000Y143000D02*Y137000D01*
X46000D01*
Y143000D01*
X40000D01*
G37*
G54D15*X60000Y210000D03*
Y200000D03*
Y190000D03*
Y180000D03*
Y170000D03*
Y160000D03*
Y150000D03*
Y140000D03*
Y130000D03*
Y120000D03*
X70000Y130000D03*
Y120000D03*
X33000Y140000D03*
X60000Y220000D03*
G54D14*G36*
X37000Y203000D02*Y197000D01*
X43000D01*
Y203000D01*
X37000D01*
G37*
G54D15*X40000Y210000D03*
X20000Y190000D03*
Y180000D03*
Y170000D03*
Y160000D03*
Y150000D03*
X10000Y190000D03*
Y180000D03*
Y170000D03*
Y160000D03*
Y150000D03*
X90000D03*
Y160000D03*
Y170000D03*
Y180000D03*
Y190000D03*
Y200000D03*
Y210000D03*
G54D14*G36*
X107000Y203000D02*Y197000D01*
X113000D01*
Y203000D01*
X107000D01*
G37*
G54D15*X110000Y210000D03*
X90000Y220000D03*
Y230000D03*
Y240000D03*
Y250000D03*
Y260000D03*
Y270000D03*
G54D14*G36*
X87000Y293000D02*Y287000D01*
X93000D01*
Y293000D01*
X87000D01*
G37*
G54D15*X90000Y300000D03*
G54D14*G36*
X57000Y273000D02*Y267000D01*
X63000D01*
Y273000D01*
X57000D01*
G37*
G54D15*X60000Y260000D03*
Y250000D03*
Y240000D03*
Y230000D03*
X40000Y240000D03*
Y270000D03*
G54D14*G36*
X117000Y173000D02*Y167000D01*
X123000D01*
Y173000D01*
X117000D01*
G37*
G54D15*X120000Y160000D03*
Y150000D03*
X130000Y170000D03*
Y160000D03*
Y150000D03*
Y130000D03*
Y120000D03*
X90000Y140000D03*
Y120000D03*
X120000Y130000D03*
Y120000D03*
X110000D03*
Y130000D03*
X100000Y120000D03*
X80000Y130000D03*
Y120000D03*
X90000Y130000D03*
X100000D03*
G54D14*G36*
X180000Y143000D02*Y137000D01*
X186000D01*
Y143000D01*
X180000D01*
G37*
G54D15*X200000Y160000D03*
Y150000D03*
Y140000D03*
X173000D03*
X230000D03*
X200000Y130000D03*
X210000D03*
X220000D03*
X230000D03*
X180000Y240000D03*
G54D14*G36*
X177000Y203000D02*Y197000D01*
X183000D01*
Y203000D01*
X177000D01*
G37*
G54D15*X180000Y210000D03*
Y270000D03*
G54D14*G36*
X197000Y273000D02*Y267000D01*
X203000D01*
Y273000D01*
X197000D01*
G37*
G54D15*X200000Y250000D03*
Y240000D03*
Y230000D03*
Y220000D03*
Y210000D03*
Y200000D03*
Y190000D03*
Y180000D03*
Y260000D03*
X270000Y160000D03*
Y150000D03*
G54D14*G36*
X349500Y143000D02*Y137000D01*
X355500D01*
Y143000D01*
X349500D01*
G37*
G54D15*X270000Y130000D03*
X280000D03*
X320000D03*
X330000D03*
X270000Y120000D03*
X280000D03*
X320000D03*
X330000D03*
X260000Y130000D03*
X250000D03*
X240000D03*
X260000Y120000D03*
X250000D03*
X240000D03*
X230000D03*
X220000D03*
X210000D03*
X200000D03*
G54D17*X251000Y290000D03*
G54D15*X279000Y306000D03*
G54D17*X260000Y365000D03*
X267000Y387000D03*
X125000Y390000D03*
X71000D03*
X145000Y365000D03*
X99000Y394000D03*
X123000Y404000D03*
G54D18*G54D19*G54D18*G54D20*G54D12*G54D20*G54D21*G54D12*G54D21*G54D20*G54D21*G54D12*G54D20*G54D12*G54D20*G54D21*G54D20*G54D21*G54D22*G54D20*G54D21*G54D20*G54D21*G54D20*G54D12*G54D21*G54D12*G54D21*G54D20*G54D21*G54D20*G54D21*G54D20*G54D12*G54D21*G54D12*G54D21*G54D22*G54D21*G54D20*G54D21*G54D20*G54D21*G54D12*G54D20*G54D21*G54D22*G54D12*G54D21*G54D22*G54D21*G54D20*G54D21*G54D20*G54D12*G54D21*G54D12*G54D20*G54D21*G54D20*G54D21*G54D12*G54D21*G54D22*G54D21*G54D20*G54D12*M02*
