M48
INCH
T41C0.035
T40C0.013
T39C0.030
T38C0.028
T37C0.040
T36C0.038
%
T40
X007100Y039000
X009900Y039400
X012300Y040400
X012500Y039000
X014500Y036500
X025100Y029000
X026000Y036500
X026700Y038700
T38
X003000Y031000
X004000Y031000
X004000Y027000
X004000Y024000
X005000Y043000
X005000Y040000
X006000Y047000
X006000Y027000
X006000Y026000
X006000Y025000
X006000Y024000
X006000Y023000
X006000Y022000
X006000Y021000
X006000Y020000
X006000Y019000
X006000Y018000
X006000Y017000
X006000Y016000
X006000Y015000
X006000Y014000
X006008Y030997
X007000Y047000
X008998Y047005
X009000Y027000
X009000Y026000
X009000Y025000
X009000Y024000
X009000Y023000
X009000Y022000
X009000Y021000
X009000Y020000
X009000Y019000
X009000Y018000
X009000Y017000
X009000Y016000
X009000Y015000
X009000Y014000
X009008Y030997
X011998Y047005
X013000Y041000
X013000Y038000
X014000Y041000
X014000Y038000
X015000Y041000
X015000Y038000
X016000Y044000
X016000Y041000
X016000Y038000
X017000Y041000
X017000Y038000
X018000Y044000
X018000Y041000
X018000Y038000
X018000Y027000
X018000Y024000
X019000Y041000
X019000Y038000
X020000Y041000
X020000Y038000
X020000Y027000
X020000Y026000
X020000Y025000
X020000Y024000
X020000Y023000
X020000Y022000
X020000Y021000
X020000Y020000
X020000Y019000
X020000Y018000
X020000Y017000
X020000Y016000
X020000Y015000
X020000Y014000
X021000Y041000
X021000Y038000
X022000Y041000
X022000Y038000
X023000Y041000
X023000Y038000
X023000Y032000
X023000Y027000
X023000Y026000
X023000Y025000
X023000Y024000
X023000Y023000
X023000Y022000
X023000Y021000
X023000Y020000
X023000Y019000
X023000Y018000
X023000Y017000
X023000Y016000
X023000Y015000
X023000Y014000
X024000Y041000
X024000Y038000
X025000Y041000
X025000Y038000
X026000Y045000
X026000Y042000
X026000Y041000
X026000Y038000
X026000Y032000
X027000Y032000
X027002Y033003
X027276Y024018
X030000Y032000
X030002Y033003
X030276Y024018
X031000Y034000
X031000Y032000
X031003Y033008
X032000Y024000
X033000Y024000
X034000Y034000
X034000Y032000
X034003Y033008
X035250Y021250
X035250Y020250
X035250Y019000
X035250Y016000
T39
X004000Y021000
X004000Y020000
X011000Y021000
X011000Y020000
X016000Y047000
X016000Y046000
X018000Y047000
X018000Y046000
X018000Y021000
X018000Y020000
X019000Y043000
X019000Y036000
X020000Y043000
X020000Y036000
X025000Y021000
X025000Y020000
T41
X027900Y030600
T36
X003300Y014000
X004000Y047000
X004000Y046000
X004000Y045000
X004000Y042000
X004000Y041000
X004000Y040000
X004000Y039000
X004000Y038000
X004000Y037000
X004000Y036000
X004000Y035000
X004000Y034000
X004300Y014000
X009000Y030000
X009000Y029000
X012000Y017000
X012000Y016000
X012000Y015000
X013000Y047000
X013000Y046000
X013000Y017000
X013000Y016000
X013000Y015000
X016000Y033000
X016000Y032000
X016000Y031000
X017000Y033000
X017000Y032000
X017000Y031000
X017300Y014000
X018300Y014000
X024000Y044000
X025000Y044000
X025000Y024000
X026000Y024000
X026000Y017000
X026000Y016000
X026000Y015000
X027000Y017000
X027000Y016000
X027000Y015000
X029000Y031000
X029000Y030000
X029000Y029000
X029000Y028000
X030000Y031000
X030000Y030000
X030000Y029000
X030000Y028000
X031000Y031000
X031000Y030000
X031000Y029000
X031000Y028000
X032000Y031000
X032000Y030000
X032000Y029000
X032000Y028000
X033000Y031000
X033000Y030000
X033000Y029000
X033000Y028000
X034000Y031000
X034000Y030000
X034000Y029000
X034000Y028000
X035000Y034000
X035000Y033000
X035000Y032000
X035250Y015000
X035250Y014000
X036000Y034000
X036000Y033000
X036000Y032000
X037000Y022500
X038000Y022500
T37
X001000Y045000
X001000Y040000
X001000Y039000
X001000Y038000
X001000Y037000
X001000Y036000
X001000Y035000
X001000Y034000
X001000Y029000
X001000Y028000
X001000Y025000
X001000Y024000
X001000Y019000
X001000Y018000
X001000Y017000
X001000Y016000
X001000Y015000
X002000Y045000
X002000Y040000
X002000Y039000
X002000Y038000
X002000Y037000
X002000Y036000
X002000Y035000
X002000Y034000
X002000Y029000
X002000Y028000
X002000Y025000
X002000Y024000
X002000Y019000
X002000Y018000
X002000Y017000
X002000Y016000
X002000Y015000
X006000Y013000
X006000Y012000
X007000Y013000
X007000Y012000
X008000Y013000
X008000Y012000
X009000Y049000
X009000Y048000
X009000Y013000
X009000Y012000
X010000Y049000
X010000Y048000
X010000Y013000
X010000Y012000
X011000Y049000
X011000Y048000
X011000Y013000
X011000Y012000
X012000Y049000
X012000Y048000
X012000Y013000
X012000Y012000
X013000Y049000
X013000Y048000
X013000Y013000
X013000Y012000
X014000Y049000
X014000Y048000
X020000Y013000
X020000Y012000
X021000Y013000
X021000Y012000
X022000Y049000
X022000Y048000
X022000Y013000
X022000Y012000
X023000Y049000
X023000Y048000
X023000Y013000
X023000Y012000
X024000Y049000
X024000Y048000
X024000Y013000
X024000Y012000
X025000Y049000
X025000Y048000
X025000Y013000
X025000Y012000
X026000Y049000
X026000Y048000
X026000Y013000
X026000Y012000
X027000Y049000
X027000Y048000
X027000Y013000
X027000Y012000
X028000Y049000
X028000Y048000
X028000Y013000
X028000Y012000
X029000Y049000
X029000Y048000
X030000Y049000
X030000Y048000
X031000Y049000
X031000Y048000
X032000Y049000
X032000Y048000
X032000Y013000
X032000Y012000
X033000Y049000
X033000Y048000
X033000Y013000
X033000Y012000
X034000Y049000
X034000Y048000
X035000Y049000
X035000Y048000
X037000Y046000
X037000Y045000
X037000Y044000
X037000Y043000
X037000Y042000
X037000Y041000
X037000Y040000
X037000Y039000
X037000Y038000
X037000Y037000
X037000Y036000
X037000Y035000
X037000Y029000
X037000Y025000
X038000Y046000
X038000Y045000
X038000Y044000
X038000Y043000
X038000Y042000
X038000Y041000
X038000Y040000
X038000Y039000
X038000Y038000
X038000Y037000
X038000Y036000
X038000Y035000
X038000Y029000
X038000Y025000
M30
